<?xml version="1.0" encoding="UTF-8" ?>
<!DOCTYPE svg PUBLIC "-//W3C//DTD SVG 1.1//EN" "http://www.w3.org/Graphics/SVG/1.1/DTD/svg11.dtd">
<svg width="800pt" height="800pt" viewBox="0 0 800 800" version="1.1" xmlns="http://www.w3.org/2000/svg">
<g id="#99c089ff">
</g>
<g id="#575757ff">
<path fill="#575757" opacity="1.00" d=" M 216.98 143.94 C 220.60 143.11 224.33 143.32 228.01 143.30 C 345.69 143.35 463.37 143.26 581.06 143.35 C 590.39 143.13 598.51 148.87 603.99 155.99 C 606.56 161.29 607.49 167.18 607.27 173.04 C 607.26 316.55 607.41 460.06 607.21 603.57 C 605.47 605.92 604.77 608.80 603.41 611.34 C 601.70 613.31 599.83 615.14 598.22 617.20 C 596.08 620.03 592.60 621.26 589.37 622.39 C 583.14 624.53 576.46 623.90 569.99 624.01 C 453.64 623.98 337.29 624.02 220.94 623.99 C 214.28 622.95 207.51 620.27 203.01 615.04 C 199.51 611.99 198.49 607.32 196.05 603.54 C 195.92 460.36 196.05 317.17 195.99 173.98 C 195.98 169.99 195.73 165.87 197.17 162.07 C 199.92 153.09 207.73 145.76 216.98 143.94 M 229.24 181.71 C 228.18 180.57 226.66 180.62 225.28 181.04 C 224.60 183.85 221.51 184.81 220.33 187.30 C 219.22 189.39 217.86 191.55 218.07 194.02 C 217.95 212.71 218.07 231.39 218.03 250.07 C 219.02 253.33 221.26 256.16 222.76 259.24 C 226.31 260.55 229.47 262.87 232.95 264.15 C 343.65 264.35 454.36 264.11 565.06 264.27 C 568.37 264.28 571.72 264.47 575.02 263.94 C 579.72 261.03 582.94 256.38 585.58 251.65 C 586.12 235.78 585.59 219.87 585.80 203.99 C 585.73 200.10 585.94 196.18 585.43 192.31 C 584.52 187.17 580.33 183.67 576.72 180.29 C 575.77 179.13 574.23 179.13 572.89 178.87 C 572.93 179.35 573.00 180.30 573.04 180.78 C 570.26 179.20 567.28 177.60 563.98 177.75 C 456.64 177.76 349.30 177.78 241.96 177.74 C 237.38 177.36 232.79 178.82 229.24 181.71 M 229.57 294.60 C 225.14 296.93 222.54 302.07 222.89 307.01 C 222.98 318.93 222.57 330.87 223.07 342.77 L 222.95 343.92 C 222.48 343.99 221.55 344.11 221.08 344.18 C 221.21 347.79 221.83 351.75 224.36 354.54 C 225.00 354.47 225.65 354.40 226.30 354.35 C 226.82 357.51 229.57 360.33 232.95 359.95 C 253.30 360.02 273.66 360.09 294.00 359.96 C 296.52 358.74 300.02 358.07 301.08 355.10 C 299.31 354.80 297.55 354.36 295.75 354.39 C 300.11 352.19 304.47 348.16 303.99 342.82 C 305.00 333.32 304.19 323.64 304.45 314.07 C 304.25 308.77 305.37 302.63 301.72 298.21 C 299.33 294.81 295.19 292.95 291.08 293.09 C 274.06 293.08 257.04 293.10 240.03 293.08 C 236.51 293.07 232.74 292.78 229.57 294.60 M 314.95 303.73 C 313.52 303.88 312.85 304.64 312.94 306.02 C 313.26 316.00 313.02 325.99 313.11 335.97 C 313.19 340.41 311.98 344.90 313.31 349.27 C 313.15 353.95 317.93 356.50 321.40 358.61 C 323.57 360.29 326.36 360.17 328.96 360.16 C 347.96 359.84 366.97 360.18 385.97 359.96 C 388.32 359.60 390.46 358.46 392.62 357.51 C 396.63 356.09 396.86 351.28 398.57 347.97 C 397.96 336.00 398.16 324.01 398.34 312.03 C 398.49 309.65 399.09 307.22 398.21 304.91 C 398.29 304.38 398.47 303.34 398.55 302.81 C 398.01 303.18 396.92 303.93 396.37 304.30 C 395.54 298.33 390.23 293.08 384.06 293.14 C 365.01 293.15 345.95 293.09 326.90 293.18 C 320.99 293.21 316.16 298.17 314.95 303.73 M 406.88 305.07 C 406.09 303.69 404.45 304.38 404.83 305.95 C 404.65 316.61 405.03 327.28 404.83 337.95 C 404.90 342.19 404.65 346.48 405.39 350.67 C 406.65 353.78 408.69 357.10 412.44 357.16 C 412.45 357.56 412.48 358.37 412.50 358.77 C 413.62 359.23 414.68 360.03 415.95 360.03 C 437.31 360.04 458.67 359.93 480.02 360.04 C 484.59 359.05 487.22 354.49 489.81 350.96 C 490.08 347.65 490.39 344.35 490.25 341.03 C 489.98 331.21 491.74 321.38 490.53 311.58 C 490.23 310.24 491.26 309.19 491.78 308.06 C 490.25 306.39 490.07 304.08 489.63 301.97 C 489.32 302.53 488.69 303.65 488.38 304.22 C 487.48 298.31 482.24 293.02 476.07 293.11 C 457.04 293.07 438.00 293.06 418.97 293.14 C 412.60 293.21 407.38 298.90 406.88 305.07 M 498.98 305.97 C 498.99 317.94 498.78 329.91 499.09 341.87 C 499.07 342.67 499.01 344.27 498.99 345.07 C 497.92 343.21 498.07 341.04 498.05 338.98 C 497.98 327.70 498.03 316.41 497.99 305.13 C 497.83 304.84 497.51 304.28 497.35 303.99 C 496.83 315.34 497.36 326.74 496.70 338.07 C 497.64 342.11 495.13 347.65 499.40 350.21 C 499.33 352.07 499.60 353.90 500.19 355.67 C 503.78 357.11 506.90 360.06 510.98 359.94 C 528.98 360.15 546.98 359.80 564.98 360.16 C 567.64 360.13 570.46 360.30 572.85 358.89 C 575.15 357.54 578.81 357.81 579.91 354.92 C 582.39 350.91 581.73 346.07 582.51 341.61 C 582.02 328.70 582.56 315.74 581.97 302.82 C 581.60 303.19 580.87 303.94 580.50 304.31 C 579.59 298.30 574.22 293.02 567.98 293.15 C 548.97 293.13 529.97 293.16 510.97 293.14 C 504.37 293.30 498.83 299.45 498.98 305.97 M 225.17 380.09 C 224.93 379.89 224.45 379.48 224.21 379.28 C 219.60 383.57 221.21 390.45 221.09 396.04 C 220.90 406.39 221.59 416.81 220.40 427.11 C 220.51 435.16 227.90 442.37 236.04 441.90 C 255.02 441.76 274.00 441.92 292.98 441.84 C 297.02 441.84 300.96 440.00 303.53 436.87 C 303.47 436.48 303.36 435.68 303.30 435.29 C 306.02 433.49 305.76 430.20 306.85 427.51 C 308.78 428.36 310.93 428.53 312.99 428.99 C 312.59 433.58 315.92 437.07 319.32 439.60 C 322.55 440.12 325.71 441.17 328.98 441.35 C 343.99 440.82 359.02 441.38 374.03 441.11 C 379.90 440.91 386.09 441.98 391.67 439.62 C 395.52 436.83 397.48 432.32 398.67 427.86 C 399.40 426.28 397.79 425.48 396.70 424.81 C 396.91 413.20 396.55 401.59 396.65 389.98 C 396.68 388.62 396.54 387.29 396.28 385.98 C 395.60 380.00 390.15 374.63 383.99 374.84 C 365.00 374.83 346.01 374.75 327.02 374.88 C 320.66 374.84 315.27 380.56 314.89 386.75 C 313.61 391.06 314.73 395.68 314.26 400.11 C 310.76 398.95 307.67 400.80 305.03 402.88 C 304.04 397.24 305.34 391.49 304.37 385.88 C 303.34 379.99 298.21 374.68 291.98 374.84 C 273.01 374.83 254.04 374.77 235.07 374.87 C 231.09 374.77 227.55 377.05 225.17 380.09 M 406.94 387.10 C 406.62 398.24 406.84 409.40 406.80 420.55 C 405.46 420.92 404.14 421.29 402.80 421.62 C 402.39 422.42 401.99 423.23 401.60 424.05 C 401.98 425.18 402.37 426.33 402.70 427.50 C 403.19 427.73 403.70 427.89 404.24 428.00 C 405.47 431.43 406.43 435.25 409.24 437.81 C 412.26 440.90 416.73 442.16 420.97 441.96 C 439.63 441.75 458.30 441.84 476.97 441.83 C 479.70 441.90 482.17 440.58 484.64 439.60 C 485.75 436.46 488.17 434.20 490.48 431.93 C 490.42 430.56 490.56 429.19 490.88 427.86 C 492.72 428.43 493.43 426.33 493.61 424.97 C 493.97 419.35 493.16 413.69 494.07 408.11 C 494.82 408.07 496.31 407.99 497.06 407.95 C 496.91 415.11 497.88 422.41 496.14 429.45 C 496.57 429.46 497.43 429.48 497.85 429.48 C 497.61 430.35 497.38 431.22 497.15 432.10 C 499.66 436.34 502.72 441.07 508.00 441.90 C 528.34 441.81 548.69 441.90 569.03 441.83 C 572.97 441.70 576.77 439.79 579.18 436.64 C 580.17 434.46 581.95 432.56 581.96 430.03 C 582.00 428.12 583.03 426.52 583.77 424.83 C 584.11 422.49 582.38 420.38 582.50 418.04 C 583.34 408.39 582.66 398.70 582.93 389.04 C 583.23 387.13 582.31 385.09 580.25 384.81 C 578.88 379.36 573.86 374.66 568.04 374.85 C 549.04 374.82 530.02 374.74 511.02 374.87 C 504.91 374.86 499.97 380.03 498.95 385.82 C 497.78 390.50 498.89 395.40 498.36 400.17 C 495.64 400.48 492.68 400.52 490.36 402.16 C 490.34 398.45 490.02 394.74 490.13 391.03 C 490.05 389.14 490.40 387.00 488.94 385.52 L 488.36 386.41 C 487.95 380.25 482.35 374.60 476.06 374.84 C 457.04 374.57 438.02 374.89 419.00 374.87 C 412.56 374.86 407.02 380.76 406.94 387.10 M 222.98 466.93 C 222.49 467.23 221.50 467.84 221.01 468.14 C 220.81 480.77 221.13 493.41 220.82 506.03 C 219.59 511.43 222.75 516.85 226.74 520.29 C 229.66 523.26 234.10 523.38 237.99 523.83 C 252.67 524.01 267.36 523.76 282.05 523.86 C 286.38 523.96 290.67 523.22 294.96 522.74 C 300.68 521.33 306.28 516.33 306.03 510.06 C 306.18 507.95 306.41 505.86 306.37 503.76 C 305.98 494.20 306.38 484.63 306.15 475.07 C 306.04 472.07 306.31 469.07 306.76 466.12 C 305.97 466.83 305.17 467.54 304.36 468.23 C 303.81 462.03 298.46 456.35 292.05 456.48 C 273.04 456.44 254.03 456.47 235.02 456.47 C 229.09 456.46 224.22 461.35 222.98 466.93 M 315.44 465.18 C 314.45 465.51 313.47 465.84 312.48 466.18 C 313.53 478.38 312.69 490.69 312.93 502.93 C 313.22 506.16 311.83 509.57 313.34 512.64 C 314.79 516.22 317.22 519.33 319.78 522.18 C 322.17 523.84 325.21 523.97 328.03 523.98 C 341.32 524.03 354.62 523.85 367.92 523.93 C 374.24 523.66 380.71 524.78 386.86 522.83 C 389.89 521.90 394.15 521.87 395.37 518.32 C 396.36 515.67 398.89 513.37 398.47 510.37 C 397.63 495.96 398.75 481.46 397.76 467.07 C 397.44 467.39 396.81 468.04 396.49 468.37 C 395.86 462.18 390.55 456.32 384.09 456.50 C 365.06 456.44 346.02 456.48 326.99 456.48 C 321.74 456.50 317.27 460.44 315.44 465.18 M 406.84 468.12 C 406.41 467.31 405.88 466.57 405.25 465.91 C 404.70 479.93 405.21 493.97 404.90 508.00 C 404.68 512.09 406.99 515.59 408.47 519.23 C 411.74 519.96 413.88 522.97 417.09 523.80 C 419.72 523.68 422.23 522.56 424.90 522.79 C 441.93 523.23 458.97 522.91 476.00 523.05 C 481.62 523.17 487.34 519.64 489.34 514.31 C 489.76 509.87 490.88 505.50 490.15 501.02 C 491.28 489.64 490.53 478.20 489.81 466.82 C 489.86 465.48 489.21 463.75 487.48 464.12 C 485.33 459.81 481.06 456.28 476.04 456.47 C 457.04 456.43 438.04 456.40 419.04 456.47 C 412.74 456.51 407.54 462.04 406.84 468.12 M 499.50 465.20 C 497.44 464.81 497.33 467.53 497.13 468.90 C 497.06 482.95 496.99 497.01 497.02 511.06 C 497.83 515.07 500.35 518.87 503.35 521.61 C 507.29 522.12 510.91 524.31 514.96 523.97 C 526.65 523.77 538.33 524.03 550.02 523.86 C 558.36 523.74 566.97 524.84 575.03 522.08 C 579.44 520.21 582.74 515.30 581.62 510.42 C 583.31 507.90 582.24 504.83 582.27 502.04 C 582.00 490.73 582.33 479.41 582.08 468.10 C 582.10 465.05 580.35 462.46 578.77 460.01 C 578.54 460.33 578.07 460.97 577.84 461.29 C 575.36 458.42 571.86 456.36 567.98 456.46 C 549.32 456.36 530.66 456.47 512.00 456.40 C 506.46 456.16 501.36 460.08 499.50 465.20 M 222.86 550.02 C 222.44 549.78 221.61 549.32 221.19 549.09 C 220.73 552.68 220.19 556.29 220.24 559.93 C 220.43 568.95 219.79 577.99 220.90 586.97 C 220.22 593.46 223.19 600.81 229.10 603.86 C 236.08 603.85 242.99 605.15 249.98 604.87 C 264.34 604.74 278.70 604.98 293.06 604.83 C 296.63 604.81 300.12 603.21 302.63 600.70 C 304.03 597.98 304.91 595.02 306.22 592.26 C 307.58 589.62 305.89 586.73 306.07 583.96 C 306.12 573.67 306.11 563.37 306.18 553.08 C 306.21 551.31 305.96 549.55 305.42 547.88 C 305.16 548.22 304.64 548.89 304.37 549.23 C 303.37 542.91 297.55 537.66 291.04 537.95 C 272.70 538.05 254.36 537.89 236.01 538.04 C 229.36 537.65 223.17 543.41 222.86 550.02 M 314.91 550.99 C 314.92 563.21 314.70 575.44 315.02 587.65 C 312.17 587.74 313.35 590.98 313.39 592.85 C 313.64 597.34 316.22 601.66 320.33 603.62 C 324.50 604.36 328.78 604.07 333.00 604.21 C 348.33 604.20 363.67 604.29 379.00 604.22 C 382.32 604.18 385.69 604.58 388.97 603.95 C 393.53 600.81 397.81 596.63 398.80 590.94 C 397.69 587.01 399.00 583.04 398.74 579.05 C 398.57 568.97 399.30 558.83 398.28 548.78 C 397.94 548.59 397.25 548.19 396.90 548.00 L 396.46 549.39 C 395.55 543.34 390.28 538.13 384.06 537.97 C 365.37 537.99 346.68 537.90 328.00 538.01 C 320.98 537.68 314.67 543.99 314.91 550.99 M 406.89 552.02 C 407.07 563.97 406.55 575.95 407.18 587.89 C 403.78 590.77 404.57 596.43 407.82 599.11 C 410.05 601.16 411.83 604.12 415.00 604.79 C 418.30 605.28 421.65 604.96 424.98 604.98 C 440.00 604.89 455.02 604.87 470.03 604.98 C 474.63 605.29 479.18 604.42 483.69 603.61 C 486.80 600.25 488.91 596.07 490.75 591.93 C 489.75 579.31 490.39 566.65 490.16 554.00 C 489.86 552.27 490.79 550.85 491.96 549.71 C 491.19 548.54 489.19 547.17 488.40 549.21 C 487.49 542.85 481.55 537.51 475.00 538.01 C 456.31 537.92 437.61 537.90 418.92 538.10 C 411.85 538.20 406.42 545.17 406.89 552.02 M 500.58 544.18 C 497.78 544.37 497.44 547.72 497.18 549.93 C 497.05 563.25 496.41 576.60 497.31 589.91 C 497.43 593.69 500.53 596.25 502.95 598.77 C 503.71 601.65 506.53 603.14 509.36 602.47 C 509.76 602.91 510.57 603.77 510.97 604.21 C 526.66 604.30 542.36 604.22 558.06 604.29 C 561.31 604.17 564.51 602.68 567.79 603.52 C 570.34 604.16 572.97 604.46 575.54 603.71 C 576.01 600.37 580.36 599.37 580.03 595.77 C 581.24 593.37 582.09 590.75 582.17 588.05 C 582.55 577.71 582.25 567.37 582.41 557.03 C 582.36 554.28 582.79 551.35 581.37 548.86 C 580.77 560.59 581.28 572.37 581.05 584.12 C 581.03 585.49 580.77 586.87 580.42 588.21 C 580.55 575.83 580.52 563.44 580.46 551.06 C 580.54 545.31 576.55 540.00 571.07 538.36 L 570.56 538.49 C 567.78 537.58 564.85 537.96 561.99 537.92 C 545.64 537.92 529.28 537.94 512.93 537.93 C 508.04 537.77 503.35 540.16 500.58 544.18 Z" />
<path fill="#575757" opacity="1.00" d=" M 307.53 417.62 C 305.86 413.73 308.05 408.06 312.81 408.02 C 310.99 410.30 307.82 412.62 309.08 415.95 C 309.89 418.32 312.88 418.02 314.86 418.72 C 314.86 419.37 314.87 420.66 314.87 421.31 C 312.24 420.58 309.03 420.24 307.53 417.62 Z" />
</g>
<g id="#7a976bff">
</g>
<g id="#a8b4aaff">
<path fill="#a8b4aa" opacity="1.00" d=" M 229.24 181.71 C 232.79 178.82 237.38 177.36 241.96 177.74 C 349.30 177.78 456.64 177.76 563.98 177.75 C 567.28 177.60 570.26 179.20 573.04 180.78 C 577.39 184.23 580.39 189.63 579.95 195.29 C 577.02 190.39 573.64 185.05 567.91 183.20 C 561.66 182.28 555.32 182.73 549.03 182.65 C 449.68 182.66 350.33 182.64 250.99 182.67 C 244.70 182.61 238.16 182.23 232.20 184.64 C 228.33 186.45 226.30 190.36 223.54 193.39 C 223.54 188.85 225.94 184.69 229.24 181.71 Z" />
</g>
<g id="#494b48ff">
<path fill="#494b48" opacity="1.00" d=" M 572.89 178.87 C 574.23 179.13 575.77 179.13 576.72 180.29 C 580.33 183.67 584.52 187.17 585.43 192.31 C 585.94 196.18 585.73 200.10 585.80 203.99 C 585.59 219.87 586.12 235.78 585.58 251.65 C 582.94 256.38 579.72 261.03 575.02 263.94 C 571.72 264.47 568.37 264.28 565.06 264.27 C 454.36 264.11 343.65 264.35 232.95 264.15 C 229.47 262.87 226.31 260.55 222.76 259.24 C 221.26 256.16 219.02 253.33 218.03 250.07 C 218.07 231.39 217.95 212.71 218.07 194.02 C 217.86 191.55 219.22 189.39 220.33 187.30 C 221.51 184.81 224.60 183.85 225.28 181.04 C 226.66 180.62 228.18 180.57 229.24 181.71 C 225.94 184.69 223.54 188.85 223.54 193.39 C 222.97 204.58 223.39 215.80 223.27 227.00 C 223.31 231.87 223.11 236.77 223.60 241.63 C 224.00 249.91 231.73 256.80 239.94 256.67 C 347.61 256.70 455.28 256.66 562.95 256.69 C 572.11 257.16 580.39 248.80 579.89 239.65 C 580.09 224.87 580.03 210.08 579.95 195.29 C 580.39 189.63 577.39 184.23 573.04 180.78 C 573.00 180.30 572.93 179.35 572.89 178.87 Z" />
</g>
<g id="#bbd0bfff">
<path fill="#bbd0bf" opacity="1.00" d=" M 232.20 184.64 C 238.16 182.23 244.70 182.61 250.99 182.67 C 350.33 182.64 449.68 182.66 549.03 182.65 C 555.32 182.73 561.66 182.28 567.91 183.20 C 573.64 185.05 577.02 190.39 579.95 195.29 C 580.03 210.08 580.09 224.87 579.89 239.65 C 577.78 242.88 576.17 246.69 572.76 248.79 C 568.22 252.14 562.34 251.96 556.98 251.99 C 451.29 251.56 345.60 252.06 239.91 251.70 C 232.81 252.16 227.83 246.48 223.60 241.63 C 223.11 236.77 223.31 231.87 223.27 227.00 C 223.39 215.80 222.97 204.58 223.54 193.39 C 226.30 190.36 228.33 186.45 232.20 184.64 M 529.23 189.91 C 530.31 191.38 531.39 192.96 533.00 193.91 C 540.59 194.14 548.20 194.01 555.80 193.94 C 556.99 192.81 558.19 191.69 559.41 190.60 C 558.83 189.65 558.02 189.17 556.99 189.15 C 549.65 189.09 542.31 189.17 534.97 189.12 C 533.03 189.14 531.01 188.99 529.23 189.91 M 528.24 192.16 C 527.70 198.07 528.14 204.03 528.00 209.96 C 528.13 212.20 527.58 214.69 529.06 216.61 C 528.84 216.85 528.41 217.31 528.19 217.54 C 527.97 225.58 527.76 233.66 528.25 241.68 C 529.98 242.87 530.64 240.26 532.26 240.19 C 531.35 241.31 530.34 242.35 529.33 243.38 C 529.56 243.69 530.02 244.31 530.24 244.62 C 539.39 244.59 548.55 244.77 557.69 244.59 C 560.89 243.79 556.89 241.14 555.92 239.90 L 555.91 238.98 C 557.37 239.86 558.57 243.06 560.46 241.62 C 560.72 233.55 560.48 225.46 560.58 217.39 C 560.36 217.20 559.92 216.82 559.69 216.64 C 561.05 214.66 560.54 212.21 560.62 209.98 C 560.48 204.09 560.78 198.20 560.49 192.32 C 558.62 190.63 557.22 193.86 556.01 195.00 C 555.48 200.73 555.88 206.52 555.77 212.27 C 555.20 212.90 554.65 213.55 554.10 214.19 C 548.74 214.08 543.37 213.83 538.02 214.11 C 536.60 214.09 535.50 215.02 534.36 215.71 C 533.43 215.18 532.50 214.65 531.58 214.12 C 531.92 213.82 532.60 213.24 532.94 212.95 C 533.04 207.02 533.01 201.08 532.96 195.15 C 531.56 194.16 530.14 190.67 528.24 192.16 Z" />
</g>
<g id="#454a43ff">
<path fill="#454a43" opacity="1.00" d=" M 529.23 189.91 C 531.01 188.99 533.03 189.14 534.97 189.12 C 542.31 189.17 549.65 189.09 556.99 189.15 C 558.02 189.17 558.83 189.65 559.41 190.60 C 558.19 191.69 556.99 192.81 555.80 193.94 C 548.20 194.01 540.59 194.14 533.00 193.91 C 531.39 192.96 530.31 191.38 529.23 189.91 Z" />
</g>
<g id="#434b43ff">
<path fill="#434b43" opacity="1.00" d=" M 528.24 192.16 C 530.14 190.67 531.56 194.16 532.96 195.15 C 533.01 201.08 533.04 207.02 532.94 212.95 C 532.60 213.24 531.92 213.82 531.58 214.12 C 530.70 214.92 529.87 215.76 529.06 216.61 C 527.58 214.69 528.13 212.20 528.00 209.96 C 528.14 204.03 527.70 198.07 528.24 192.16 Z" />
</g>
<g id="#434842ff">
<path fill="#434842" opacity="1.00" d=" M 556.01 195.00 C 557.22 193.86 558.62 190.63 560.49 192.32 C 560.78 198.20 560.48 204.09 560.62 209.98 C 560.54 212.21 561.05 214.66 559.69 216.64 C 558.23 215.32 556.75 213.99 555.77 212.27 C 555.88 206.52 555.48 200.73 556.01 195.00 Z" />
</g>
<g id="#aac1b1ff">
<path fill="#aac1b1" opacity="1.00" d=" M 554.10 214.19 C 554.65 213.55 555.20 212.90 555.77 212.27 C 556.75 213.99 558.23 215.32 559.69 216.64 C 559.92 216.82 560.36 217.20 560.58 217.39 C 558.61 218.25 555.87 219.42 555.96 221.98 C 555.77 227.64 555.95 233.31 555.91 238.98 L 555.92 239.90 C 548.29 240.01 540.66 239.98 533.04 239.95 L 533.03 239.16 C 540.35 239.23 547.69 239.53 555.00 238.98 C 555.38 232.46 555.66 225.86 554.72 219.39 C 547.00 218.67 539.22 218.81 531.49 219.17 C 530.40 218.60 529.29 218.07 528.19 217.54 C 528.41 217.31 528.84 216.85 529.06 216.61 C 529.87 215.76 530.70 214.92 531.58 214.12 C 532.50 214.65 533.43 215.18 534.36 215.71 C 535.50 215.02 536.60 214.09 538.02 214.11 C 543.37 213.83 548.74 214.08 554.10 214.19 Z" />
</g>
<g id="#434a42ff">
<path fill="#434a42" opacity="1.00" d=" M 528.19 217.54 C 529.29 218.07 530.40 218.60 531.49 219.17 C 532.28 220.27 533.15 221.45 533.01 222.90 C 533.08 228.32 532.93 233.74 533.03 239.16 L 533.04 239.95 C 540.66 239.98 548.29 240.01 555.92 239.90 C 556.89 241.14 560.89 243.79 557.69 244.59 C 548.55 244.77 539.39 244.59 530.24 244.62 C 530.02 244.31 529.56 243.69 529.33 243.38 C 530.34 242.35 531.35 241.31 532.26 240.19 C 530.64 240.26 529.98 242.87 528.25 241.68 C 527.76 233.66 527.97 225.58 528.19 217.54 Z" />
</g>
<g id="#434b45ff">
<path fill="#434b45" opacity="1.00" d=" M 555.96 221.98 C 555.87 219.42 558.61 218.25 560.58 217.39 C 560.48 225.46 560.72 233.55 560.46 241.62 C 558.57 243.06 557.37 239.86 555.91 238.98 C 555.95 233.31 555.77 227.64 555.96 221.98 Z" />
</g>
<g id="#bbd1c1ff">
<path fill="#bbd1c1" opacity="1.00" d=" M 531.49 219.17 C 539.22 218.81 547.00 218.67 554.72 219.39 C 555.66 225.86 555.38 232.46 555.00 238.98 C 547.69 239.53 540.35 239.23 533.03 239.16 C 532.93 233.74 533.08 228.32 533.01 222.90 C 533.15 221.45 532.28 220.27 531.49 219.17 Z" />
</g>
<g id="#9daaa0ff">
<path fill="#9daaa0" opacity="1.00" d=" M 572.76 248.79 C 576.17 246.69 577.78 242.88 579.89 239.65 C 580.39 248.80 572.11 257.16 562.95 256.69 C 455.28 256.66 347.61 256.70 239.94 256.67 C 231.73 256.80 224.00 249.91 223.60 241.63 C 227.83 246.48 232.81 252.16 239.91 251.70 C 345.60 252.06 451.29 251.56 556.98 251.99 C 562.34 251.96 568.22 252.14 572.76 248.79 Z" />
</g>
<g id="#ebebebff">
<path fill="#ebebeb" opacity="1.00" d=" M 229.57 294.60 C 232.74 292.78 236.51 293.07 240.03 293.08 C 257.04 293.10 274.06 293.08 291.08 293.09 C 295.19 292.95 299.33 294.81 301.72 298.21 C 305.37 302.63 304.25 308.77 304.45 314.07 C 304.19 323.64 305.00 333.32 303.99 342.82 C 301.84 347.56 297.31 351.31 291.94 351.34 C 278.30 351.43 264.66 351.32 251.02 351.38 C 244.98 351.28 238.92 351.61 232.90 351.02 C 228.30 350.51 225.33 346.40 223.07 342.77 C 222.57 330.87 222.98 318.93 222.89 307.01 C 222.54 302.07 225.14 296.93 229.57 294.60 M 254.05 309.98 C 254.07 311.61 254.09 313.25 254.11 314.90 C 258.19 314.92 262.27 314.87 266.35 314.94 C 262.93 322.53 259.48 330.12 256.09 337.74 C 258.40 337.76 260.71 337.81 263.01 337.92 C 266.12 331.00 269.16 324.05 272.23 317.12 C 273.36 314.89 273.10 312.33 273.17 309.91 C 266.80 310.01 260.43 309.91 254.05 309.98 Z" />
<path fill="#ebebeb" opacity="1.00" d=" M 314.95 303.73 C 316.16 298.17 320.99 293.21 326.90 293.18 C 345.95 293.09 365.01 293.15 384.06 293.14 C 390.23 293.08 395.54 298.33 396.37 304.30 C 396.54 317.13 396.82 330.00 396.25 342.81 C 393.70 347.78 388.76 351.64 382.94 351.31 C 364.66 351.31 346.37 351.36 328.08 351.24 C 322.37 351.67 317.64 347.62 315.03 342.90 C 314.60 329.86 314.78 316.78 314.95 303.73 M 345.89 317.03 C 345.90 319.85 347.85 322.20 350.31 323.38 C 345.86 325.06 343.99 330.60 346.55 334.60 C 349.99 338.88 356.46 338.90 361.23 337.22 C 366.59 335.61 367.67 326.99 362.80 324.23 C 362.01 323.85 360.37 323.00 361.88 322.22 C 365.17 320.29 366.24 315.28 363.60 312.38 C 360.69 309.18 355.92 309.31 351.99 309.90 C 348.64 310.50 345.80 313.56 345.89 317.03 Z" />
<path fill="#ebebeb" opacity="1.00" d=" M 406.88 305.07 C 407.38 298.90 412.60 293.21 418.97 293.14 C 438.00 293.06 457.04 293.07 476.07 293.11 C 482.24 293.02 487.48 298.31 488.38 304.22 C 488.66 317.37 488.93 330.58 488.24 343.72 C 486.05 346.03 484.21 348.93 481.11 350.10 C 477.64 351.78 473.71 351.21 470.00 351.20 C 452.68 351.11 435.35 351.28 418.03 351.14 C 413.55 351.23 411.20 346.88 407.53 345.32 C 406.91 341.92 406.77 338.45 406.80 334.99 C 406.85 325.02 406.78 315.04 406.88 305.07 M 442.60 310.61 C 437.43 313.19 436.19 320.83 439.73 325.19 C 442.72 328.70 448.58 328.78 451.70 325.39 C 451.27 328.17 450.71 331.52 447.85 332.84 C 445.43 334.25 442.59 333.49 440.10 332.73 C 440.31 334.21 439.35 336.24 440.34 337.43 C 444.81 338.73 450.50 338.75 453.78 334.91 C 458.23 329.58 458.39 321.74 456.47 315.35 C 454.61 309.83 447.43 308.19 442.60 310.61 Z" />
<path fill="#ebebeb" opacity="1.00" d=" M 498.98 305.97 C 498.83 299.45 504.37 293.30 510.97 293.14 C 529.97 293.16 548.97 293.13 567.98 293.15 C 574.22 293.02 579.59 298.30 580.50 304.31 C 580.50 317.47 580.93 330.67 580.26 343.82 C 577.23 347.12 574.00 351.45 569.03 351.33 C 551.02 351.36 533.00 351.30 514.99 351.35 C 511.52 351.29 507.71 351.52 504.80 349.30 C 502.01 347.65 500.35 344.76 499.09 341.87 C 498.78 329.91 498.99 317.94 498.98 305.97 M 538.26 311.19 C 534.46 313.31 538.32 319.50 541.75 316.85 C 545.33 314.57 541.93 309.39 538.26 311.19 M 525.65 321.23 C 525.59 322.95 525.55 324.68 525.52 326.42 C 535.00 326.40 544.47 326.48 553.95 326.38 C 553.91 324.66 553.88 322.95 553.87 321.24 C 544.46 321.33 535.05 321.32 525.65 321.23 M 539.39 330.37 C 536.88 330.88 535.55 334.64 537.91 336.19 C 539.36 337.72 542.31 337.01 542.97 335.02 C 544.22 332.74 541.77 329.89 539.39 330.37 Z" />
<path fill="#ebebeb" opacity="1.00" d=" M 225.17 380.09 C 227.55 377.05 231.09 374.77 235.07 374.87 C 254.04 374.77 273.01 374.83 291.98 374.84 C 298.21 374.68 303.34 379.99 304.37 385.88 C 304.34 398.84 304.57 411.83 304.15 424.78 C 301.60 429.17 297.41 433.13 291.99 432.92 C 274.00 432.94 256.01 432.86 238.02 432.94 C 235.37 432.85 232.52 433.19 230.09 431.89 C 226.76 430.26 224.54 427.10 222.87 423.90 C 222.72 411.95 222.83 400.00 222.78 388.04 C 222.64 385.18 223.71 382.50 225.17 380.09 M 263.28 392.19 C 261.56 394.39 260.18 396.82 258.74 399.21 C 256.78 402.37 254.65 405.43 252.54 408.49 C 252.55 410.19 252.51 411.90 252.64 413.61 C 253.50 413.96 254.37 413.96 255.27 413.61 C 255.41 412.85 255.68 411.35 255.82 410.60 C 258.69 407.78 261.26 404.57 262.67 400.75 L 262.95 400.86 C 263.57 399.83 264.20 398.82 264.88 397.82 C 265.08 401.61 265.17 405.41 264.93 409.20 C 262.64 409.19 260.36 409.09 258.08 409.20 C 255.83 409.33 255.83 412.23 255.25 413.79 C 258.53 413.89 261.81 413.92 265.09 413.90 C 265.05 415.77 265.02 417.64 264.97 419.52 C 265.52 419.42 266.62 419.21 267.17 419.11 C 269.77 415.14 268.27 410.39 268.36 406.01 C 268.40 401.25 268.34 396.49 268.45 391.73 C 266.74 391.89 264.88 391.42 263.28 392.19 M 268.73 392.01 C 268.68 399.06 268.21 406.17 269.15 413.18 C 269.30 415.40 268.04 417.41 267.37 419.46 C 268.30 419.44 270.18 419.40 271.11 419.37 C 271.06 417.57 271.03 415.78 271.00 413.99 C 272.19 413.86 273.39 413.75 274.58 413.64 C 274.59 412.20 274.60 410.76 274.60 409.33 C 273.36 409.24 272.12 409.16 270.89 409.09 C 270.96 403.26 270.93 397.44 270.95 391.62 C 270.39 391.71 269.28 391.91 268.73 392.01 Z" />
<path fill="#ebebeb" opacity="1.00" d=" M 314.89 386.75 C 315.27 380.56 320.66 374.84 327.02 374.88 C 346.01 374.75 365.00 374.83 383.99 374.84 C 390.15 374.63 395.60 380.00 396.28 385.98 C 396.25 396.64 396.08 407.30 396.39 417.96 C 396.65 423.11 394.66 429.22 389.63 431.48 C 387.30 432.78 384.58 432.97 381.98 432.95 C 363.62 432.73 345.25 433.01 326.89 432.85 C 320.97 433.01 316.63 428.01 315.05 422.74 C 315.01 422.38 314.92 421.67 314.87 421.31 C 314.87 420.66 314.86 419.37 314.86 418.72 C 314.91 414.48 314.89 410.24 314.88 406.01 L 314.86 405.26 C 314.98 399.09 314.98 392.92 314.89 386.75 M 347.14 391.37 C 346.92 395.28 346.72 399.21 347.15 403.12 C 345.82 404.02 347.00 407.31 348.61 405.97 C 351.37 405.71 354.56 405.24 356.99 406.92 C 359.19 408.34 358.76 411.69 357.13 413.39 C 353.99 415.64 349.74 414.79 346.51 413.22 C 346.94 415.22 344.91 418.95 348.03 419.26 C 347.31 420.32 347.60 423.07 345.70 422.64 L 344.44 423.82 C 344.90 424.05 345.84 424.49 346.30 424.71 L 346.63 425.42 C 346.80 425.45 347.13 425.51 347.30 425.54 C 347.50 423.31 347.81 421.09 348.37 418.93 C 352.62 420.54 357.35 419.63 361.39 417.83 L 361.38 417.18 C 365.56 414.76 366.02 408.63 363.50 404.85 C 361.41 401.28 356.60 400.75 352.82 401.17 C 352.88 399.46 352.93 397.77 352.99 396.08 C 356.67 396.07 360.35 396.08 364.04 396.06 C 363.97 394.49 363.93 392.92 363.91 391.36 C 358.32 391.46 352.73 391.45 347.14 391.37 M 392.42 409.93 C 391.89 413.95 392.04 418.02 392.04 422.07 C 392.25 423.43 391.60 425.31 392.94 426.26 C 392.90 420.82 393.61 415.28 392.42 409.93 Z" />
<path fill="#ebebeb" opacity="1.00" d=" M 498.95 385.82 C 499.97 380.03 504.91 374.86 511.02 374.87 C 530.02 374.74 549.04 374.82 568.04 374.85 C 573.86 374.66 578.88 379.36 580.25 384.81 C 580.97 390.18 580.48 395.61 580.61 401.01 C 580.50 408.90 580.88 416.82 580.37 424.70 C 578.36 427.20 576.64 430.20 573.62 431.58 C 570.35 433.22 566.59 433.13 563.03 433.15 C 545.67 432.99 528.31 433.25 510.95 433.01 C 506.66 433.14 503.46 430.05 500.33 427.58 C 497.62 421.40 499.35 414.37 498.92 407.84 L 498.91 406.88 C 498.91 406.19 498.92 404.82 498.92 404.13 C 499.16 398.02 498.96 391.92 498.95 385.82 M 529.47 397.57 C 526.83 400.05 522.62 398.79 519.77 400.81 C 517.72 402.77 515.59 404.64 513.27 406.27 C 511.90 406.86 512.72 407.99 513.54 408.56 C 511.42 413.36 512.79 418.82 514.56 423.49 C 517.21 425.85 519.86 428.41 523.09 429.99 C 526.60 430.17 530.24 430.39 533.70 429.63 C 536.02 427.88 536.19 424.64 536.26 421.97 C 534.24 420.06 531.80 418.57 528.98 419.80 C 530.28 418.40 531.58 416.92 532.14 415.05 C 530.20 416.21 528.54 418.27 526.03 417.90 C 527.48 416.46 528.94 415.03 530.38 413.59 C 530.61 413.65 531.08 413.78 531.32 413.84 C 533.14 413.87 534.98 413.88 536.82 413.84 C 537.61 412.04 538.44 410.23 539.74 408.73 C 540.65 410.39 541.54 412.06 542.37 413.76 C 544.34 413.82 546.32 413.86 548.30 413.89 C 546.70 410.85 544.60 408.11 542.99 405.09 C 544.77 402.49 546.68 399.96 548.20 397.19 C 546.31 397.16 544.43 397.19 542.55 397.26 C 541.53 398.62 541.48 401.39 539.63 401.79 C 538.66 400.26 537.80 398.68 536.90 397.13 C 534.98 397.16 533.06 397.17 531.16 397.16 C 531.65 398.06 532.17 398.95 532.72 399.83 C 531.41 399.39 530.33 398.62 529.47 397.57 M 542.37 418.37 C 538.74 420.96 539.57 426.71 542.34 429.62 C 544.86 430.92 548.99 431.61 550.71 428.73 C 553.32 425.44 552.55 420.33 548.95 418.14 C 546.79 417.64 544.47 417.69 542.37 418.37 Z" />
<path fill="#ebebeb" opacity="1.00" d=" M 222.98 466.93 C 224.22 461.35 229.09 456.46 235.02 456.47 C 254.03 456.47 273.04 456.44 292.05 456.48 C 298.46 456.35 303.81 462.03 304.36 468.23 C 304.54 481.04 304.76 493.88 304.23 506.68 C 301.35 510.31 298.13 514.66 292.92 514.40 C 273.59 514.47 254.25 514.36 234.92 514.43 C 229.56 514.58 225.14 510.52 222.99 505.92 C 222.71 492.93 222.72 479.92 222.98 466.93 M 265.23 473.35 C 262.17 475.16 259.35 477.36 256.50 479.48 C 257.44 480.79 258.38 482.11 259.30 483.44 C 260.86 482.30 262.49 481.27 264.09 480.19 C 264.10 487.15 264.16 494.12 264.05 501.09 C 266.30 501.09 268.55 501.07 270.79 501.01 C 270.64 491.78 270.85 482.55 270.69 473.32 C 268.87 473.28 267.04 473.16 265.23 473.35 Z" />
<path fill="#ebebeb" opacity="1.00" d=" M 315.44 465.18 C 317.27 460.44 321.74 456.50 326.99 456.48 C 346.02 456.48 365.06 456.44 384.09 456.50 C 390.55 456.32 395.86 462.18 396.49 468.37 C 396.42 481.19 396.81 494.03 396.27 506.84 C 394.23 509.24 392.35 511.97 389.48 513.46 C 387.19 514.67 384.54 514.58 382.03 514.64 C 363.67 514.60 345.31 514.64 326.95 514.60 C 321.49 514.85 317.15 510.55 315.00 505.91 C 314.59 497.28 314.91 488.63 314.81 480.00 C 314.97 475.06 314.33 470.04 315.44 465.18 M 346.76 474.74 C 346.82 476.52 346.87 478.30 346.91 480.10 C 349.47 478.95 352.21 477.68 355.10 478.07 C 357.87 478.55 358.77 482.15 357.33 484.29 C 354.44 489.01 350.23 492.78 346.03 496.32 C 345.98 497.97 345.93 499.62 345.89 501.28 C 352.33 501.33 358.77 501.26 365.21 501.26 C 365.21 499.64 365.22 498.02 365.24 496.42 C 361.58 496.44 357.92 496.40 354.26 496.50 C 357.92 493.14 361.70 489.62 363.74 485.00 C 365.16 481.54 364.78 476.74 361.29 474.66 C 356.89 471.96 351.36 473.15 346.76 474.74 Z" />
<path fill="#ebebeb" opacity="1.00" d=" M 406.84 468.12 C 407.54 462.04 412.74 456.51 419.04 456.47 C 438.04 456.40 457.04 456.43 476.04 456.47 C 481.06 456.28 485.33 459.81 487.48 464.12 C 489.26 469.24 488.41 474.72 488.60 480.02 C 488.46 488.97 488.91 497.94 488.27 506.87 C 485.85 509.59 483.54 512.84 479.91 513.97 C 476.02 514.82 472.02 514.34 468.08 514.42 C 453.07 514.47 438.06 514.37 423.05 514.44 C 419.70 514.41 416.03 514.88 413.08 512.92 C 409.97 511.23 408.28 507.97 406.88 504.88 C 406.76 492.63 406.86 480.37 406.84 468.12 M 438.99 474.04 C 439.09 475.68 439.19 477.33 439.28 478.99 C 442.10 478.13 445.07 477.41 448.03 478.01 C 450.28 478.68 451.14 481.81 449.27 483.38 C 447.27 484.77 444.63 484.36 442.34 484.57 C 442.32 486.12 442.28 487.68 442.23 489.24 C 444.69 489.22 447.47 488.81 449.62 490.31 C 451.15 491.72 451.05 494.07 449.45 495.40 C 446.07 497.55 441.96 496.32 438.38 495.46 C 438.31 497.23 438.23 499.00 438.17 500.78 C 443.45 501.66 449.59 502.56 454.25 499.25 C 458.86 496.16 458.06 487.45 452.02 486.61 C 456.55 485.31 458.55 479.25 455.33 475.71 C 450.98 471.64 444.26 472.59 438.99 474.04 Z" />
<path fill="#ebebeb" opacity="1.00" d=" M 499.50 465.20 C 501.36 460.08 506.46 456.16 512.00 456.40 C 530.66 456.47 549.32 456.36 567.98 456.46 C 571.86 456.36 575.36 458.42 577.84 461.29 C 581.51 466.12 580.45 472.40 580.57 478.04 C 580.42 487.64 580.90 497.26 580.28 506.85 C 577.09 511.04 572.83 515.37 567.05 514.64 C 549.36 514.62 531.67 514.59 513.99 514.65 C 511.48 514.61 508.86 514.72 506.53 513.63 C 503.55 512.46 501.66 509.71 499.34 507.65 C 498.40 499.14 499.09 490.56 498.88 482.02 C 499.09 476.41 498.30 470.72 499.50 465.20 M 530.73 485.16 C 530.72 486.46 530.67 487.77 530.60 489.08 C 536.69 489.18 542.77 489.09 548.85 489.13 C 548.82 487.82 548.80 486.51 548.78 485.21 C 542.76 485.15 536.75 485.22 530.73 485.16 Z" />
<path fill="#ebebeb" opacity="1.00" d=" M 222.86 550.02 C 223.17 543.41 229.36 537.65 236.01 538.04 C 254.36 537.89 272.70 538.05 291.04 537.95 C 297.55 537.66 303.37 542.91 304.37 549.23 C 304.45 562.38 304.73 575.54 304.21 588.68 C 301.90 591.21 299.84 594.33 296.45 595.50 C 294.04 596.28 291.53 596.72 289.04 597.19 C 287.09 596.68 285.09 596.33 283.07 596.34 C 269.39 596.38 255.71 596.40 242.03 596.36 C 238.94 596.47 235.73 597.56 232.77 596.11 C 228.39 594.88 225.16 591.54 222.97 587.69 C 222.57 575.15 222.78 562.57 222.86 550.02 M 259.35 555.31 C 255.25 557.08 253.71 561.91 253.59 566.05 C 253.46 570.25 253.20 574.80 255.37 578.59 C 258.41 585.08 269.55 584.75 272.15 578.02 C 274.52 572.06 274.56 564.94 271.83 559.10 C 269.68 554.60 263.65 553.41 259.35 555.31 Z" />
<path fill="#ebebeb" opacity="1.00" d=" M 314.91 550.99 C 314.67 543.99 320.98 537.68 328.00 538.01 C 346.68 537.90 365.37 537.99 384.06 537.97 C 390.28 538.13 395.55 543.34 396.46 549.39 C 396.47 562.48 396.93 575.61 396.21 588.69 C 393.05 591.90 390.00 596.33 384.93 596.14 C 366.94 596.42 348.95 596.10 330.96 596.28 C 327.48 596.25 323.68 596.34 320.67 594.31 C 318.24 592.63 316.65 590.05 315.02 587.65 C 314.70 575.44 314.92 563.21 314.91 550.99 M 354.09 561.16 C 348.59 561.99 345.87 569.34 349.39 573.59 C 352.45 578.00 360.14 577.60 362.47 572.65 C 365.90 567.22 360.31 559.53 354.09 561.16 Z" />
<path fill="#ebebeb" opacity="1.00" d=" M 406.89 552.02 C 406.42 545.17 411.85 538.20 418.92 538.10 C 437.61 537.90 456.31 537.92 475.00 538.01 C 481.55 537.51 487.49 542.85 488.40 549.21 C 488.80 557.46 488.50 565.72 488.59 573.97 C 488.49 578.89 488.94 583.86 488.11 588.74 C 485.82 591.54 483.40 594.64 479.75 595.66 C 476.53 596.38 473.21 596.01 469.95 596.07 C 454.96 596.15 439.98 596.08 425.00 596.15 C 421.99 596.14 418.94 596.35 415.99 595.71 C 412.42 594.95 410.18 591.81 407.45 589.68 C 407.38 589.23 407.25 588.34 407.18 587.89 C 406.55 575.95 407.07 563.97 406.89 552.02 M 445.82 558.84 C 445.81 561.53 445.83 564.24 445.88 566.94 C 443.24 566.96 440.59 567.02 437.95 567.09 C 437.92 567.92 437.84 569.58 437.80 570.41 C 440.45 570.50 443.10 570.54 445.76 570.53 C 445.81 573.32 445.85 576.11 445.81 578.91 C 447.08 578.86 448.36 578.85 449.64 578.87 C 449.60 576.09 449.59 573.33 449.60 570.56 C 452.23 570.52 454.86 570.46 457.50 570.46 C 457.47 569.59 457.43 567.86 457.41 566.99 C 454.75 567.10 452.10 567.05 449.45 566.86 C 449.59 564.18 449.64 561.50 449.61 558.84 C 448.66 558.84 446.76 558.84 445.82 558.84 Z" />
<path fill="#ebebeb" opacity="1.00" d=" M 262.36 559.30 C 264.32 558.66 266.46 559.97 266.72 562.03 C 267.59 566.55 267.61 571.30 266.75 575.84 C 266.35 578.25 263.04 579.61 261.39 577.55 C 259.51 574.78 260.06 571.17 259.90 568.01 C 260.06 565.05 259.62 561.25 262.36 559.30 Z" />
</g>
<g id="#4b4b4bff">
<path fill="#4b4b4b" opacity="1.00" d=" M 488.38 304.22 C 488.69 303.65 489.32 302.53 489.63 301.97 C 490.07 304.08 490.25 306.39 491.78 308.06 C 491.26 309.19 490.23 310.24 490.53 311.58 C 491.74 321.38 489.98 331.21 490.25 341.03 C 490.39 344.35 490.08 347.65 489.81 350.96 C 487.22 354.49 484.59 359.05 480.02 360.04 C 458.67 359.93 437.31 360.04 415.95 360.03 C 414.68 360.03 413.62 359.23 412.50 358.77 C 412.48 358.37 412.45 357.56 412.44 357.16 C 408.69 357.10 406.65 353.78 405.39 350.67 C 404.65 346.48 404.90 342.19 404.83 337.95 C 405.03 327.28 404.65 316.61 404.83 305.95 C 404.45 304.38 406.09 303.69 406.88 305.07 C 406.78 315.04 406.85 325.02 406.80 334.99 C 406.77 338.45 406.91 341.92 407.53 345.32 C 408.63 351.02 414.30 355.02 419.99 354.80 C 438.66 354.76 457.34 354.85 476.01 354.76 C 482.13 354.84 487.59 349.75 488.24 343.72 C 488.93 330.58 488.66 317.37 488.38 304.22 Z" />
<path fill="#4b4b4b" opacity="1.00" d=" M 396.37 304.30 C 396.92 303.93 398.01 303.18 398.55 302.81 C 398.47 303.34 398.29 304.38 398.21 304.91 C 399.09 307.22 398.49 309.65 398.34 312.03 C 398.16 324.01 397.96 336.00 398.57 347.97 C 396.86 351.28 396.63 356.09 392.62 357.51 C 390.46 358.46 388.32 359.60 385.97 359.96 C 366.97 360.18 347.96 359.84 328.96 360.16 C 326.36 360.17 323.57 360.29 321.40 358.61 C 317.93 356.50 313.15 353.95 313.31 349.27 C 311.98 344.90 313.19 340.41 313.11 335.97 C 313.02 325.99 313.26 316.00 312.94 306.02 C 312.85 304.64 313.52 303.88 314.95 303.73 C 314.78 316.78 314.60 329.86 315.03 342.90 C 315.17 349.57 321.33 355.18 327.98 354.79 C 346.66 354.82 365.35 354.81 384.03 354.79 C 390.49 354.86 396.06 349.21 396.25 342.81 C 396.82 330.00 396.54 317.13 396.37 304.30 Z" />
<path fill="#4b4b4b" opacity="1.00" d=" M 577.84 461.29 C 578.07 460.97 578.54 460.33 578.77 460.01 C 580.35 462.46 582.10 465.05 582.08 468.10 C 582.33 479.41 582.00 490.73 582.27 502.04 C 582.24 504.83 583.31 507.90 581.62 510.42 C 582.74 515.30 579.44 520.21 575.03 522.08 C 566.97 524.84 558.36 523.74 550.02 523.86 C 538.33 524.03 526.65 523.77 514.96 523.97 C 510.91 524.31 507.29 522.12 503.35 521.61 C 500.35 518.87 497.83 515.07 497.02 511.06 C 496.99 497.01 497.06 482.95 497.13 468.90 C 497.33 467.53 497.44 464.81 499.50 465.20 C 498.30 470.72 499.09 476.41 498.88 482.02 C 499.09 490.56 498.40 499.14 499.34 507.65 C 500.00 513.31 505.20 518.08 510.94 518.01 C 529.63 518.14 548.33 517.99 567.02 518.06 C 573.63 518.79 579.80 513.41 580.28 506.85 C 580.90 497.26 580.42 487.64 580.57 478.04 C 580.45 472.40 581.51 466.12 577.84 461.29 Z" />
<path fill="#4b4b4b" opacity="1.00" d=" M 312.48 466.18 C 313.47 465.84 314.45 465.51 315.44 465.18 C 314.33 470.04 314.97 475.06 314.81 480.00 C 314.91 488.63 314.59 497.28 315.00 505.91 C 315.03 512.21 320.56 518.22 327.00 518.07 C 345.98 518.04 364.97 518.08 383.95 518.04 C 390.21 518.39 395.66 512.90 396.27 506.84 C 396.81 494.03 396.42 481.19 396.49 468.37 C 396.81 468.04 397.44 467.39 397.76 467.07 C 398.75 481.46 397.63 495.96 398.47 510.37 C 398.89 513.37 396.36 515.67 395.37 518.32 C 394.15 521.87 389.89 521.90 386.86 522.83 C 380.71 524.78 374.24 523.66 367.92 523.93 C 354.62 523.85 341.32 524.03 328.03 523.98 C 325.21 523.97 322.17 523.84 319.78 522.18 C 317.22 519.33 314.79 516.22 313.34 512.64 C 311.83 509.57 313.22 506.16 312.93 502.93 C 312.69 490.69 313.53 478.38 312.48 466.18 Z" />
</g>
<g id="#494949ff">
<path fill="#494949" opacity="1.00" d=" M 580.50 304.31 C 580.87 303.94 581.60 303.19 581.97 302.82 C 582.56 315.74 582.02 328.70 582.51 341.61 C 581.73 346.07 582.39 350.91 579.91 354.92 C 578.81 357.81 575.15 357.54 572.85 358.89 C 570.46 360.30 567.64 360.13 564.98 360.16 C 546.98 359.80 528.98 360.15 510.98 359.94 C 506.90 360.06 503.78 357.11 500.19 355.67 C 499.60 353.90 499.33 352.07 499.40 350.21 C 495.13 347.65 497.64 342.11 496.70 338.07 C 497.36 326.74 496.83 315.34 497.35 303.99 C 497.51 304.28 497.83 304.84 497.99 305.13 C 498.03 316.41 497.98 327.70 498.05 338.98 C 498.07 341.04 497.92 343.21 498.99 345.07 C 500.38 348.05 502.00 351.20 504.94 352.94 C 507.92 354.88 511.60 354.91 515.04 354.89 C 532.73 354.80 550.42 354.95 568.11 354.81 C 574.21 354.91 579.61 349.82 580.26 343.82 C 580.93 330.67 580.50 317.47 580.50 304.31 Z" />
<path fill="#494949" opacity="1.00" d=" M 224.21 379.28 C 224.45 379.48 224.93 379.89 225.17 380.09 C 223.71 382.50 222.64 385.18 222.78 388.04 C 222.83 400.00 222.72 411.95 222.87 423.90 C 222.77 430.80 229.14 436.88 236.03 436.44 C 254.67 436.47 273.32 436.51 291.96 436.42 C 297.84 436.60 303.29 431.67 303.98 425.89 C 304.93 426.43 305.87 426.99 306.85 427.51 C 305.76 430.20 306.02 433.49 303.30 435.29 C 303.36 435.68 303.47 436.48 303.53 436.87 C 300.96 440.00 297.02 441.84 292.98 441.84 C 274.00 441.92 255.02 441.76 236.04 441.90 C 227.90 442.37 220.51 435.16 220.40 427.11 C 221.59 416.81 220.90 406.39 221.09 396.04 C 221.21 390.45 219.60 383.57 224.21 379.28 Z" />
<path fill="#494949" opacity="1.00" d=" M 305.42 547.88 C 305.96 549.55 306.21 551.31 306.18 553.08 C 306.11 563.37 306.12 573.67 306.07 583.96 C 305.89 586.73 307.58 589.62 306.22 592.26 C 304.91 595.02 304.03 597.98 302.63 600.70 C 300.12 603.21 296.63 604.81 293.06 604.83 C 278.70 604.98 264.34 604.74 249.98 604.87 C 242.99 605.15 236.08 603.85 229.10 603.86 C 223.19 600.81 220.22 593.46 220.90 586.97 C 219.79 577.99 220.43 568.95 220.24 559.93 C 220.19 556.29 220.73 552.68 221.19 549.09 C 221.61 549.32 222.44 549.78 222.86 550.02 C 222.78 562.57 222.57 575.15 222.97 587.69 C 222.95 594.51 229.28 600.15 235.97 599.95 C 254.32 599.92 272.68 599.97 291.04 599.93 C 297.45 600.15 303.61 595.17 304.21 588.68 C 304.73 575.54 304.45 562.38 304.37 549.23 C 304.64 548.89 305.16 548.22 305.42 547.88 Z" />
</g>
<g id="#343434ff">
<path fill="#343434" opacity="1.00" d=" M 254.05 309.98 C 260.43 309.91 266.80 310.01 273.17 309.91 C 273.10 312.33 273.36 314.89 272.23 317.12 C 269.16 324.05 266.12 331.00 263.01 337.92 C 260.71 337.81 258.40 337.76 256.09 337.74 C 259.48 330.12 262.93 322.53 266.35 314.94 C 262.27 314.87 258.19 314.92 254.11 314.90 C 254.09 313.25 254.07 311.61 254.05 309.98 Z" />
<path fill="#343434" opacity="1.00" d=" M 347.14 391.37 C 352.73 391.45 358.32 391.46 363.91 391.36 C 363.93 392.92 363.97 394.49 364.04 396.06 C 360.35 396.08 356.67 396.07 352.99 396.08 C 352.93 397.77 352.88 399.46 352.82 401.17 C 356.60 400.75 361.41 401.28 363.50 404.85 C 361.53 408.67 361.11 412.94 361.38 417.18 L 361.39 417.83 C 357.35 419.63 352.62 420.54 348.37 418.93 C 347.81 421.09 347.50 423.31 347.30 425.54 C 347.13 425.51 346.80 425.45 346.63 425.42 L 346.30 424.71 C 345.84 424.49 344.90 424.05 344.44 423.82 L 345.70 422.64 C 347.60 423.07 347.31 420.32 348.03 419.26 C 344.91 418.95 346.94 415.22 346.51 413.22 C 349.74 414.79 353.99 415.64 357.13 413.39 C 358.76 411.69 359.19 408.34 356.99 406.92 C 354.56 405.24 351.37 405.71 348.61 405.97 C 349.04 404.82 348.48 403.26 347.15 403.12 C 346.72 399.21 346.92 395.28 347.14 391.37 Z" />
<path fill="#343434" opacity="1.00" d=" M 265.23 473.35 C 267.04 473.16 268.87 473.28 270.69 473.32 C 270.85 482.55 270.64 491.78 270.79 501.01 C 268.55 501.07 266.30 501.09 264.05 501.09 C 264.16 494.12 264.10 487.15 264.09 480.19 C 262.49 481.27 260.86 482.30 259.30 483.44 C 258.38 482.11 257.44 480.79 256.50 479.48 C 259.35 477.36 262.17 475.16 265.23 473.35 Z" />
<path fill="#343434" opacity="1.00" d=" M 346.76 474.74 C 351.36 473.15 356.89 471.96 361.29 474.66 C 364.78 476.74 365.16 481.54 363.74 485.00 C 361.70 489.62 357.92 493.14 354.26 496.50 C 357.92 496.40 361.58 496.44 365.24 496.42 C 365.22 498.02 365.21 499.64 365.21 501.26 C 358.77 501.26 352.33 501.33 345.89 501.28 C 345.93 499.62 345.98 497.97 346.03 496.32 C 350.23 492.78 354.44 489.01 357.33 484.29 C 358.77 482.15 357.87 478.55 355.10 478.07 C 352.21 477.68 349.47 478.95 346.91 480.10 C 346.87 478.30 346.82 476.52 346.76 474.74 Z" />
<path fill="#343434" opacity="1.00" d=" M 438.99 474.04 C 444.26 472.59 450.98 471.64 455.33 475.71 C 458.55 479.25 456.55 485.31 452.02 486.61 C 458.06 487.45 458.86 496.16 454.25 499.25 C 449.59 502.56 443.45 501.66 438.17 500.78 C 438.23 499.00 438.31 497.23 438.38 495.46 C 441.96 496.32 446.07 497.55 449.45 495.40 C 451.05 494.07 451.15 491.72 449.62 490.31 C 447.47 488.81 444.69 489.22 442.23 489.24 C 442.28 487.68 442.32 486.12 442.34 484.57 C 444.63 484.36 447.27 484.77 449.27 483.38 C 451.14 481.81 450.28 478.68 448.03 478.01 C 445.07 477.41 442.10 478.13 439.28 478.99 C 439.19 477.33 439.09 475.68 438.99 474.04 Z" />
<path fill="#343434" opacity="1.00" d=" M 259.35 555.31 C 263.65 553.41 269.68 554.60 271.83 559.10 C 274.56 564.94 274.52 572.06 272.15 578.02 C 269.55 584.75 258.41 585.08 255.37 578.59 C 253.20 574.80 253.46 570.25 253.59 566.05 C 253.71 561.91 255.25 557.08 259.35 555.31 M 262.36 559.30 C 259.62 561.25 260.06 565.05 259.90 568.01 C 260.06 571.17 259.51 574.78 261.39 577.55 C 263.04 579.61 266.35 578.25 266.75 575.84 C 267.61 571.30 267.59 566.55 266.72 562.03 C 266.46 559.97 264.32 558.66 262.36 559.30 Z" />
</g>
<g id="#333333ff">
<path fill="#333333" opacity="1.00" d=" M 345.89 317.03 C 345.80 313.56 348.64 310.50 351.99 309.90 C 355.92 309.31 360.69 309.18 363.60 312.38 C 366.24 315.28 365.17 320.29 361.88 322.22 C 360.37 323.00 362.01 323.85 362.80 324.23 C 367.67 326.99 366.59 335.61 361.23 337.22 C 356.46 338.90 349.99 338.88 346.55 334.60 C 343.99 330.60 345.86 325.06 350.31 323.38 C 347.85 322.20 345.90 319.85 345.89 317.03 M 354.10 314.26 C 351.56 315.21 351.31 319.02 353.74 320.27 C 356.31 322.73 360.14 318.79 358.77 316.01 C 358.17 314.17 355.72 313.47 354.10 314.26 M 354.21 326.09 C 352.06 327.15 351.41 329.58 352.06 331.79 C 353.64 333.96 357.46 334.55 358.93 331.98 C 360.92 329.12 357.34 324.75 354.21 326.09 Z" />
<path fill="#333333" opacity="1.00" d=" M 442.60 310.61 C 447.43 308.19 454.61 309.83 456.47 315.35 C 458.39 321.74 458.23 329.58 453.78 334.91 C 450.50 338.75 444.81 338.73 440.34 337.43 C 439.35 336.24 440.31 334.21 440.10 332.73 C 442.59 333.49 445.43 334.25 447.85 332.84 C 450.71 331.52 451.27 328.17 451.70 325.39 C 448.58 328.78 442.72 328.70 439.73 325.19 C 436.19 320.83 437.43 313.19 442.60 310.61 M 446.24 314.33 C 442.48 316.15 443.53 323.60 448.10 323.22 C 453.27 322.45 451.70 312.13 446.24 314.33 Z" />
<path fill="#333333" opacity="1.00" d=" M 525.65 321.23 C 535.05 321.32 544.46 321.33 553.87 321.24 C 553.88 322.95 553.91 324.66 553.95 326.38 C 544.47 326.48 535.00 326.40 525.52 326.42 C 525.55 324.68 525.59 322.95 525.65 321.23 Z" />
<path fill="#333333" opacity="1.00" d=" M 263.28 392.19 C 264.88 391.42 266.74 391.89 268.45 391.73 C 268.34 396.49 268.40 401.25 268.36 406.01 C 268.27 410.39 269.77 415.14 267.17 419.11 C 266.62 419.21 265.52 419.42 264.97 419.52 C 265.02 417.64 265.05 415.77 265.09 413.90 C 261.81 413.92 258.53 413.89 255.25 413.79 C 255.83 412.23 255.83 409.33 258.08 409.20 C 260.36 409.09 262.64 409.19 264.93 409.20 C 265.17 405.41 265.08 401.61 264.88 397.82 C 264.20 398.82 263.57 399.83 262.95 400.86 L 262.67 400.75 C 261.36 400.22 260.06 399.69 258.74 399.21 C 260.18 396.82 261.56 394.39 263.28 392.19 Z" />
<path fill="#333333" opacity="1.00" d=" M 451.87 401.71 C 457.15 403.38 459.05 410.02 456.67 414.72 C 455.66 417.32 453.09 418.65 450.79 419.90 L 450.17 418.94 C 449.99 417.67 449.84 416.41 449.72 415.14 C 451.86 412.93 451.37 409.72 450.39 407.11 C 451.73 405.54 450.37 402.92 451.87 401.71 Z" />
<path fill="#333333" opacity="1.00" d=" M 354.09 561.16 C 360.31 559.53 365.90 567.22 362.47 572.65 C 360.14 577.60 352.45 578.00 349.39 573.59 C 345.87 569.34 348.59 561.99 354.09 561.16 Z" />
</g>
<g id="#313131ff">
<path fill="#313131" opacity="1.00" d=" M 538.26 311.19 C 541.93 309.39 545.33 314.57 541.75 316.85 C 538.32 319.50 534.46 313.31 538.26 311.19 Z" />
<path fill="#313131" opacity="1.00" d=" M 438.03 401.41 C 440.46 400.66 442.71 401.44 444.11 403.56 C 446.01 402.08 448.34 401.60 450.71 401.60 C 450.91 403.25 450.82 404.87 450.44 406.46 C 446.18 406.11 441.97 407.31 437.70 406.72 C 437.81 404.95 437.92 403.18 438.03 401.41 Z" />
<path fill="#313131" opacity="1.00" d=" M 437.71 407.21 C 440.06 407.20 442.42 407.17 444.78 407.06 C 443.93 409.74 443.80 412.63 445.57 414.99 C 445.23 416.55 444.87 418.11 444.48 419.68 C 441.85 418.34 439.20 416.23 438.84 413.07 C 438.24 414.36 437.70 415.67 437.12 416.97 C 437.20 415.36 437.05 413.57 438.19 412.28 C 437.98 410.59 437.82 408.90 437.71 407.21 Z" />
</g>
<g id="#e9e9e9ff">
<path fill="#e9e9e9" opacity="1.00" d=" M 354.10 314.26 C 355.72 313.47 358.17 314.17 358.77 316.01 C 360.14 318.79 356.31 322.73 353.74 320.27 C 351.31 319.02 351.56 315.21 354.10 314.26 Z" />
</g>
<g id="#ecececff">
<path fill="#ececec" opacity="1.00" d=" M 446.24 314.33 C 451.70 312.13 453.27 322.45 448.10 323.22 C 443.53 323.60 442.48 316.15 446.24 314.33 Z" />
</g>
<g id="#eaeaeaff">
<path fill="#eaeaea" opacity="1.00" d=" M 354.21 326.09 C 357.34 324.75 360.92 329.12 358.93 331.98 C 357.46 334.55 353.64 333.96 352.06 331.79 C 351.41 329.58 352.06 327.15 354.21 326.09 Z" />
<path fill="#eaeaea" opacity="1.00" d=" M 406.94 387.10 C 407.02 380.76 412.56 374.86 419.00 374.87 C 438.02 374.89 457.04 374.57 476.06 374.84 C 482.35 374.60 487.95 380.25 488.36 386.41 C 488.66 393.62 488.38 400.83 488.45 408.04 C 488.39 413.89 488.75 419.77 487.96 425.59 C 485.93 427.66 484.42 430.46 481.63 431.62 C 479.28 432.80 476.63 433.13 474.04 433.14 C 457.38 433.15 440.73 433.08 424.07 433.20 C 420.98 433.16 417.80 433.19 414.85 432.17 C 412.17 431.24 410.37 428.94 408.38 427.06 C 408.67 426.70 409.24 425.97 409.53 425.60 C 407.77 425.34 407.65 423.99 408.28 422.59 C 406.82 421.94 407.12 420.25 407.02 418.97 C 406.91 408.34 407.13 397.72 406.94 387.10 M 442.57 393.65 C 440.30 395.44 439.28 398.23 438.18 400.78 C 440.24 400.85 442.32 400.94 444.38 400.91 C 445.19 395.79 451.33 395.02 455.32 396.79 C 455.43 395.34 455.57 393.90 455.71 392.47 C 451.51 390.83 446.12 390.42 442.57 393.65 M 438.03 401.41 C 437.92 403.18 437.81 404.95 437.70 406.72 C 441.97 407.31 446.18 406.11 450.44 406.46 C 450.82 404.87 450.91 403.25 450.71 401.60 C 448.34 401.60 446.01 402.08 444.11 403.56 C 442.71 401.44 440.46 400.66 438.03 401.41 M 451.87 401.71 C 450.37 402.92 451.73 405.54 450.39 407.11 C 451.37 409.72 451.86 412.93 449.72 415.14 C 448.34 415.19 446.96 415.28 445.60 415.39 C 445.37 416.90 445.26 418.43 445.30 419.96 C 446.95 419.89 448.61 419.83 450.27 419.76 L 450.17 418.94 L 450.79 419.90 C 453.09 418.65 455.66 417.32 456.67 414.72 C 459.05 410.02 457.15 403.38 451.87 401.71 M 437.71 407.21 C 437.82 408.90 437.98 410.59 438.19 412.28 C 437.05 413.57 437.20 415.36 437.12 416.97 C 437.70 415.67 438.24 414.36 438.84 413.07 C 439.20 416.23 441.85 418.34 444.48 419.68 C 444.87 418.11 445.23 416.55 445.57 414.99 C 443.80 412.63 443.93 409.74 444.78 407.06 C 442.42 407.17 440.06 407.20 437.71 407.21 Z" />
</g>
<g id="#3a3a3aff">
<path fill="#3a3a3a" opacity="1.00" d=" M 539.39 330.37 C 541.77 329.89 544.22 332.74 542.97 335.02 C 542.31 337.01 539.36 337.72 537.91 336.19 C 535.55 334.64 536.88 330.88 539.39 330.37 Z" />
</g>
<g id="#b2b2b2ff">
<path fill="#b2b2b2" opacity="1.00" d=" M 499.09 341.87 C 500.35 344.76 502.01 347.65 504.80 349.30 C 507.71 351.52 511.52 351.29 514.99 351.35 C 533.00 351.30 551.02 351.36 569.03 351.33 C 574.00 351.45 577.23 347.12 580.26 343.82 C 579.61 349.82 574.21 354.91 568.11 354.81 C 550.42 354.95 532.73 354.80 515.04 354.89 C 511.60 354.91 507.92 354.88 504.94 352.94 C 502.00 351.20 500.38 348.05 498.99 345.07 C 499.01 344.27 499.07 342.67 499.09 341.87 Z" />
</g>
<g id="#b3b3b3ff">
<path fill="#b3b3b3" opacity="1.00" d=" M 223.07 342.77 C 225.33 346.40 228.30 350.51 232.90 351.02 C 238.92 351.61 244.98 351.28 251.02 351.38 C 264.66 351.32 278.30 351.43 291.94 351.34 C 297.31 351.31 301.84 347.56 303.99 342.82 C 304.47 348.16 300.11 352.19 295.75 354.39 C 290.53 355.10 285.26 354.78 280.02 354.83 C 265.34 354.81 250.65 354.86 235.97 354.81 C 229.67 355.12 223.69 350.22 222.95 343.92 L 223.07 342.77 Z" />
<path fill="#b3b3b3" opacity="1.00" d=" M 406.88 504.88 C 408.28 507.97 409.97 511.23 413.08 512.92 C 416.03 514.88 419.70 514.41 423.05 514.44 C 438.06 514.37 453.07 514.47 468.08 514.42 C 472.02 514.34 476.02 514.82 479.91 513.97 C 483.54 512.84 485.85 509.59 488.27 506.87 C 487.75 512.94 482.22 518.25 476.05 518.07 C 457.03 518.16 438.01 517.99 419.00 518.07 C 412.18 518.15 406.61 511.52 406.88 504.88 Z" />
<path fill="#b3b3b3" opacity="1.00" d=" M 222.99 505.92 C 225.14 510.52 229.56 514.58 234.92 514.43 C 254.25 514.36 273.59 514.47 292.92 514.40 C 298.13 514.66 301.35 510.31 304.23 506.68 C 303.70 512.75 298.21 518.29 291.96 518.06 C 273.32 518.11 254.68 518.09 236.03 518.07 C 229.28 518.64 222.93 512.66 222.99 505.92 Z" />
</g>
<g id="#b6b6b6ff">
<path fill="#b6b6b6" opacity="1.00" d=" M 315.03 342.90 C 317.64 347.62 322.37 351.67 328.08 351.24 C 346.37 351.36 364.66 351.31 382.94 351.31 C 388.76 351.64 393.70 347.78 396.25 342.81 C 396.06 349.21 390.49 354.86 384.03 354.79 C 365.35 354.81 346.66 354.82 327.98 354.79 C 321.33 355.18 315.17 349.57 315.03 342.90 Z" />
<path fill="#b6b6b6" opacity="1.00" d=" M 315.02 587.65 C 316.65 590.05 318.24 592.63 320.67 594.31 C 323.68 596.34 327.48 596.25 330.96 596.28 C 348.95 596.10 366.94 596.42 384.93 596.14 C 390.00 596.33 393.05 591.90 396.21 588.69 C 395.62 594.70 390.12 599.90 384.00 599.75 C 365.35 599.86 346.70 599.74 328.05 599.82 C 321.31 600.24 314.95 594.45 315.02 587.65 Z" />
</g>
<g id="#484848ff">
<path fill="#484848" opacity="1.00" d=" M 221.08 344.18 C 221.55 344.11 222.48 343.99 222.95 343.92 C 223.69 350.22 229.67 355.12 235.97 354.81 C 250.65 354.86 265.34 354.81 280.02 354.83 C 285.26 354.78 290.53 355.10 295.75 354.39 C 297.55 354.36 299.31 354.80 301.08 355.10 C 300.02 358.07 296.52 358.74 294.00 359.96 C 273.66 360.09 253.30 360.02 232.95 359.95 C 229.57 360.33 226.82 357.51 226.30 354.35 C 225.65 354.40 225.00 354.47 224.36 354.54 C 221.83 351.75 221.21 347.79 221.08 344.18 Z" />
<path fill="#484848" opacity="1.00" d=" M 396.70 424.81 C 397.79 425.48 399.40 426.28 398.67 427.86 C 397.48 432.32 395.52 436.83 391.67 439.62 C 386.09 441.98 379.90 440.91 374.03 441.11 C 359.02 441.38 343.99 440.82 328.98 441.35 C 325.71 441.17 322.55 440.12 319.32 439.60 C 315.92 437.07 312.59 433.58 312.99 428.99 C 313.60 428.69 314.82 428.08 315.44 427.77 C 317.52 433.25 323.02 437.15 328.99 436.44 C 347.30 436.35 365.60 436.52 383.90 436.35 C 390.39 436.72 395.78 430.91 396.70 424.81 Z" />
<path fill="#484848" opacity="1.00" d=" M 487.48 464.12 C 489.21 463.75 489.86 465.48 489.81 466.82 C 490.53 478.20 491.28 489.64 490.15 501.02 C 490.88 505.50 489.76 509.87 489.34 514.31 C 487.34 519.64 481.62 523.17 476.00 523.05 C 458.97 522.91 441.93 523.23 424.90 522.79 C 422.23 522.56 419.72 523.68 417.09 523.80 C 413.88 522.97 411.74 519.96 408.47 519.23 C 406.99 515.59 404.68 512.09 404.90 508.00 C 405.21 493.97 404.70 479.93 405.25 465.91 C 405.88 466.57 406.41 467.31 406.84 468.12 C 406.86 480.37 406.76 492.63 406.88 504.88 C 406.61 511.52 412.18 518.15 419.00 518.07 C 438.01 517.99 457.03 518.16 476.05 518.07 C 482.22 518.25 487.75 512.94 488.27 506.87 C 488.91 497.94 488.46 488.97 488.60 480.02 C 488.41 474.72 489.26 469.24 487.48 464.12 Z" />
<path fill="#484848" opacity="1.00" d=" M 396.90 548.00 C 397.25 548.19 397.94 548.59 398.28 548.78 C 399.30 558.83 398.57 568.97 398.74 579.05 C 399.00 583.04 397.69 587.01 398.80 590.94 C 397.81 596.63 393.53 600.81 388.97 603.95 C 385.69 604.58 382.32 604.18 379.00 604.22 C 363.67 604.29 348.33 604.20 333.00 604.21 C 328.78 604.07 324.50 604.36 320.33 603.62 C 316.22 601.66 313.64 597.34 313.39 592.85 C 313.35 590.98 312.17 587.74 315.02 587.65 C 314.95 594.45 321.31 600.24 328.05 599.82 C 346.70 599.74 365.35 599.86 384.00 599.75 C 390.12 599.90 395.62 594.70 396.21 588.69 C 396.93 575.61 396.47 562.48 396.46 549.39 L 396.90 548.00 Z" />
<path fill="#484848" opacity="1.00" d=" M 488.40 549.21 C 489.19 547.17 491.19 548.54 491.96 549.71 C 490.79 550.85 489.86 552.27 490.16 554.00 C 490.39 566.65 489.75 579.31 490.75 591.93 C 488.91 596.07 486.80 600.25 483.69 603.61 C 479.18 604.42 474.63 605.29 470.03 604.98 C 455.02 604.87 440.00 604.89 424.98 604.98 C 421.65 604.96 418.30 605.28 415.00 604.79 C 411.83 604.12 410.05 601.16 407.82 599.11 C 404.57 596.43 403.78 590.77 407.18 587.89 C 407.25 588.34 407.38 589.23 407.45 589.68 C 407.84 593.38 410.38 596.61 413.59 598.36 C 417.09 600.21 421.15 599.82 424.97 599.85 C 441.65 599.79 458.32 599.83 474.99 599.83 C 481.40 600.34 487.72 595.24 488.11 588.74 C 488.94 583.86 488.49 578.89 488.59 573.97 C 488.50 565.72 488.80 557.46 488.40 549.21 Z" />
</g>
<g id="#b8b8b8ff">
<path fill="#b8b8b8" opacity="1.00" d=" M 481.11 350.10 C 484.21 348.93 486.05 346.03 488.24 343.72 C 487.59 349.75 482.13 354.84 476.01 354.76 C 457.34 354.85 438.66 354.76 419.99 354.80 C 414.30 355.02 408.63 351.02 407.53 345.32 C 411.20 346.88 413.55 351.23 418.03 351.14 C 435.35 351.28 452.68 351.11 470.00 351.20 C 473.71 351.21 477.64 351.78 481.11 350.10 Z" />
<path fill="#b8b8b8" opacity="1.00" d=" M 396.28 385.98 C 396.54 387.29 396.68 388.62 396.65 389.98 C 396.55 401.59 396.91 413.20 396.70 424.81 C 395.78 430.91 390.39 436.72 383.90 436.35 C 365.60 436.52 347.30 436.35 328.99 436.44 C 323.02 437.15 317.52 433.25 315.44 427.77 L 315.09 427.09 C 315.05 425.63 315.03 424.18 315.05 422.74 C 316.63 428.01 320.97 433.01 326.89 432.85 C 345.25 433.01 363.62 432.73 381.98 432.95 C 384.58 432.97 387.30 432.78 389.63 431.48 C 394.66 429.22 396.65 423.11 396.39 417.96 C 396.08 407.30 396.25 396.64 396.28 385.98 Z" />
</g>
<g id="#4a4a4aff">
<path fill="#4a4a4a" opacity="1.00" d=" M 580.25 384.81 C 582.31 385.09 583.23 387.13 582.93 389.04 C 582.66 398.70 583.34 408.39 582.50 418.04 C 582.38 420.38 584.11 422.49 583.77 424.83 C 583.03 426.52 582.00 428.12 581.96 430.03 C 581.95 432.56 580.17 434.46 579.18 436.64 C 576.77 439.79 572.97 441.70 569.03 441.83 C 548.69 441.90 528.34 441.81 508.00 441.90 C 502.72 441.07 499.66 436.34 497.15 432.10 C 497.38 431.22 497.61 430.35 497.85 429.48 C 497.43 429.48 496.57 429.46 496.14 429.45 C 497.88 422.41 496.91 415.11 497.06 407.95 C 497.52 407.92 498.45 407.86 498.92 407.84 C 499.35 414.37 497.62 421.40 500.33 427.58 C 499.97 430.60 502.49 432.71 504.65 434.35 C 507.29 436.47 510.85 436.36 514.05 436.46 C 532.02 436.38 550.00 436.53 567.96 436.38 C 574.42 436.75 580.13 431.03 580.37 424.70 C 580.88 416.82 580.50 408.90 580.61 401.01 C 580.48 395.61 580.97 390.18 580.25 384.81 Z" />
<path fill="#4a4a4a" opacity="1.00" d=" M 404.24 428.00 C 405.39 427.99 406.54 427.97 407.70 427.96 C 409.39 433.12 414.50 436.77 419.98 436.43 C 438.65 436.42 457.32 436.54 475.99 436.38 C 481.35 436.60 485.98 432.68 487.88 427.88 C 488.63 427.88 490.13 427.87 490.88 427.86 C 490.56 429.19 490.42 430.56 490.48 431.93 C 488.17 434.20 485.75 436.46 484.64 439.60 C 482.17 440.58 479.70 441.90 476.97 441.83 C 458.30 441.84 439.63 441.75 420.97 441.96 C 416.73 442.16 412.26 440.90 409.24 437.81 C 406.43 435.25 405.47 431.43 404.24 428.00 Z" />
<path fill="#4a4a4a" opacity="1.00" d=" M 304.36 468.23 C 305.17 467.54 305.97 466.83 306.76 466.12 C 306.31 469.07 306.04 472.07 306.15 475.07 C 306.38 484.63 305.98 494.20 306.37 503.76 C 306.41 505.86 306.18 507.95 306.03 510.06 C 306.28 516.33 300.68 521.33 294.96 522.74 C 290.67 523.22 286.38 523.96 282.05 523.86 C 267.36 523.76 252.67 524.01 237.99 523.83 C 234.10 523.38 229.66 523.26 226.74 520.29 C 222.75 516.85 219.59 511.43 220.82 506.03 C 221.13 493.41 220.81 480.77 221.01 468.14 C 221.50 467.84 222.49 467.23 222.98 466.93 C 222.72 479.92 222.71 492.93 222.99 505.92 C 222.93 512.66 229.28 518.64 236.03 518.07 C 254.68 518.09 273.32 518.11 291.96 518.06 C 298.21 518.29 303.70 512.75 304.23 506.68 C 304.76 493.88 304.54 481.04 304.36 468.23 Z" />
</g>
<g id="#676767ff">
<path fill="#676767" opacity="1.00" d=" M 304.37 385.88 C 305.34 391.49 304.04 397.24 305.03 402.88 C 307.67 400.80 310.76 398.95 314.26 400.11 C 314.73 395.68 313.61 391.06 314.89 386.75 C 314.98 392.92 314.98 399.09 314.86 405.26 C 314.59 404.19 314.31 403.12 314.02 402.07 C 310.59 401.79 307.49 403.17 304.67 404.98 C 304.60 407.32 304.79 409.66 305.24 411.97 C 306.32 410.19 306.56 407.50 308.76 406.71 C 310.64 405.64 312.81 405.62 314.88 406.01 C 314.89 410.24 314.91 414.48 314.86 418.72 C 312.88 418.02 309.89 418.32 309.08 415.95 C 307.82 412.62 310.99 410.30 312.81 408.02 C 308.05 408.06 305.86 413.73 307.53 417.62 C 309.03 420.24 312.24 420.58 314.87 421.31 C 314.92 421.67 315.01 422.38 315.05 422.74 C 312.86 422.61 310.48 422.74 308.57 421.46 C 306.79 420.44 306.04 418.42 304.96 416.80 C 304.76 419.20 304.69 421.62 304.73 424.03 C 308.04 425.50 311.61 426.17 315.09 427.09 L 315.44 427.77 C 314.82 428.08 313.60 428.69 312.99 428.99 C 310.93 428.53 308.78 428.36 306.85 427.51 C 305.87 426.99 304.93 426.43 303.98 425.89 L 304.15 424.78 C 304.57 411.83 304.34 398.84 304.37 385.88 M 313.70 410.17 C 311.97 411.63 310.75 413.47 311.25 415.83 C 311.98 415.89 313.44 416.00 314.17 416.06 C 314.45 414.07 314.50 412.05 313.70 410.17 Z" />
</g>
<g id="#7e7e7eff">
<path fill="#7e7e7e" opacity="1.00" d=" M 488.36 386.41 L 488.94 385.52 C 488.77 391.40 488.56 397.30 488.92 403.18 C 489.28 402.93 490.00 402.42 490.36 402.16 C 492.68 400.52 495.64 400.48 498.36 400.17 C 498.89 395.40 497.78 390.50 498.95 385.82 C 498.96 391.92 499.16 398.02 498.92 404.13 C 498.71 403.50 498.29 402.23 498.09 401.60 C 494.87 402.08 491.91 403.44 488.90 404.56 C 488.69 412.13 488.39 419.72 488.97 427.28 C 489.97 426.58 491.51 426.21 491.74 424.81 C 492.90 419.38 491.63 413.79 492.34 408.32 C 493.66 405.90 496.68 406.35 498.91 406.88 L 498.92 407.84 C 498.45 407.86 497.52 407.92 497.06 407.95 C 496.31 407.99 494.82 408.07 494.07 408.11 C 493.16 413.69 493.97 419.35 493.61 424.97 C 493.43 426.33 492.72 428.43 490.88 427.86 C 490.13 427.87 488.63 427.88 487.88 427.88 C 487.90 427.31 487.94 426.16 487.96 425.59 C 488.75 419.77 488.39 413.89 488.45 408.04 C 488.38 400.83 488.66 393.62 488.36 386.41 Z" />
</g>
<g id="#434343ff">
<path fill="#434343" opacity="1.00" d=" M 488.94 385.52 C 490.40 387.00 490.05 389.14 490.13 391.03 C 490.02 394.74 490.34 398.45 490.36 402.16 C 490.00 402.42 489.28 402.93 488.92 403.18 C 488.56 397.30 488.77 391.40 488.94 385.52 Z" />
</g>
<g id="#afafafff">
<path fill="#afafaf" opacity="1.00" d=" M 406.80 420.55 C 406.84 409.40 406.62 398.24 406.94 387.10 C 407.13 397.72 406.91 408.34 407.02 418.97 C 407.12 420.25 406.82 421.94 408.28 422.59 C 407.65 423.99 407.77 425.34 409.53 425.60 C 409.24 425.97 408.67 426.70 408.38 427.06 C 410.37 428.94 412.17 431.24 414.85 432.17 C 417.80 433.19 420.98 433.16 424.07 433.20 C 440.73 433.08 457.38 433.15 474.04 433.14 C 476.63 433.13 479.28 432.80 481.63 431.62 C 484.42 430.46 485.93 427.66 487.96 425.59 C 487.94 426.16 487.90 427.31 487.88 427.88 C 485.98 432.68 481.35 436.60 475.99 436.38 C 457.32 436.54 438.65 436.42 419.98 436.43 C 414.50 436.77 409.39 433.12 407.70 427.96 C 406.54 427.97 405.39 427.99 404.24 428.00 C 403.70 427.89 403.19 427.73 402.70 427.50 C 402.37 426.33 401.98 425.18 401.60 424.05 C 401.99 423.23 402.39 422.42 402.80 421.62 C 404.14 421.29 405.46 420.92 406.80 420.55 M 402.45 425.17 C 402.79 427.74 405.94 426.78 407.71 427.02 C 407.19 425.01 406.59 423.03 406.34 420.98 C 404.69 421.77 401.39 422.60 402.45 425.17 Z" />
<path fill="#afafaf" opacity="1.00" d=" M 567.05 514.64 C 572.83 515.37 577.09 511.04 580.28 506.85 C 579.80 513.41 573.63 518.79 567.02 518.06 C 548.33 517.99 529.63 518.14 510.94 518.01 C 505.20 518.08 500.00 513.31 499.34 507.65 C 501.66 509.71 503.55 512.46 506.53 513.63 C 508.86 514.72 511.48 514.61 513.99 514.65 C 531.67 514.59 549.36 514.62 567.05 514.64 Z" />
<path fill="#afafaf" opacity="1.00" d=" M 222.97 587.69 C 225.16 591.54 228.39 594.88 232.77 596.11 C 235.73 597.56 238.94 596.47 242.03 596.36 C 255.71 596.40 269.39 596.38 283.07 596.34 C 285.09 596.33 287.09 596.68 289.04 597.19 C 291.53 596.72 294.04 596.28 296.45 595.50 C 299.84 594.33 301.90 591.21 304.21 588.68 C 303.61 595.17 297.45 600.15 291.04 599.93 C 272.68 599.97 254.32 599.92 235.97 599.95 C 229.28 600.15 222.95 594.51 222.97 587.69 Z" />
</g>
<g id="#353535ff">
<path fill="#353535" opacity="1.00" d=" M 442.57 393.65 C 446.12 390.42 451.51 390.83 455.71 392.47 C 455.57 393.90 455.43 395.34 455.32 396.79 C 451.33 395.02 445.19 395.79 444.38 400.91 C 442.32 400.94 440.24 400.85 438.18 400.78 C 439.28 398.23 440.30 395.44 442.57 393.65 Z" />
<path fill="#353535" opacity="1.00" d=" M 531.16 397.16 C 533.06 397.17 534.98 397.16 536.90 397.13 C 537.80 398.68 538.66 400.26 539.63 401.79 C 541.48 401.39 541.53 398.62 542.55 397.26 C 544.43 397.19 546.31 397.16 548.20 397.19 C 546.68 399.96 544.77 402.49 542.99 405.09 C 544.60 408.11 546.70 410.85 548.30 413.89 C 546.32 413.86 544.34 413.82 542.37 413.76 C 541.54 412.06 540.65 410.39 539.74 408.73 C 538.44 410.23 537.61 412.04 536.82 413.84 C 534.98 413.88 533.14 413.87 531.32 413.84 C 532.84 410.97 534.60 408.22 536.74 405.76 C 535.48 403.73 534.20 401.70 532.72 399.83 C 532.17 398.95 531.65 398.06 531.16 397.16 Z" />
</g>
<g id="#373737ff">
<path fill="#373737" opacity="1.00" d=" M 268.73 392.01 C 269.28 391.91 270.39 391.71 270.95 391.62 C 270.93 397.44 270.96 403.26 270.89 409.09 C 272.12 409.16 273.36 409.24 274.60 409.33 C 274.60 410.76 274.59 412.20 274.58 413.64 C 273.39 413.75 272.19 413.86 271.00 413.99 C 271.03 415.78 271.06 417.57 271.11 419.37 C 270.18 419.40 268.30 419.44 267.37 419.46 C 268.04 417.41 269.30 415.40 269.15 413.18 C 268.21 406.17 268.68 399.06 268.73 392.01 Z" />
<path fill="#373737" opacity="1.00" d=" M 252.54 408.49 C 254.65 405.43 256.78 402.37 258.74 399.21 C 260.06 399.69 261.36 400.22 262.67 400.75 C 261.26 404.57 258.69 407.78 255.82 410.60 C 255.68 411.35 255.41 412.85 255.27 413.61 C 254.37 413.96 253.50 413.96 252.64 413.61 C 252.51 411.90 252.55 410.19 252.54 408.49 Z" />
</g>
<g id="#e5e5e5ff">
<path fill="#e5e5e5" opacity="1.00" d=" M 529.47 397.57 C 530.33 398.62 531.41 399.39 532.72 399.83 C 534.20 401.70 535.48 403.73 536.74 405.76 C 534.60 408.22 532.84 410.97 531.32 413.84 C 531.08 413.78 530.61 413.65 530.38 413.59 C 528.94 415.03 527.48 416.46 526.03 417.90 C 528.54 418.27 530.20 416.21 532.14 415.05 C 531.58 416.92 530.28 418.40 528.98 419.80 C 531.80 418.57 534.24 420.06 536.26 421.97 C 536.19 424.64 536.02 427.88 533.70 429.63 C 530.24 430.39 526.60 430.17 523.09 429.99 C 519.86 428.41 517.21 425.85 514.56 423.49 C 512.79 418.82 511.42 413.36 513.54 408.56 C 512.72 407.99 511.90 406.86 513.27 406.27 C 515.59 404.64 517.72 402.77 519.77 400.81 C 522.62 398.79 526.83 400.05 529.47 397.57 Z" />
</g>
<g id="#585858ff">
<path fill="#585858" opacity="1.00" d=" M 304.67 404.98 C 307.49 403.17 310.59 401.79 314.02 402.07 C 314.31 403.12 314.59 404.19 314.86 405.26 L 314.88 406.01 C 312.81 405.62 310.64 405.64 308.76 406.71 C 306.56 407.50 306.32 410.19 305.24 411.97 C 304.79 409.66 304.60 407.32 304.67 404.98 Z" />
</g>
<g id="#545454ff">
<path fill="#545454" opacity="1.00" d=" M 488.90 404.56 C 491.91 403.44 494.87 402.08 498.09 401.60 C 498.29 402.23 498.71 403.50 498.92 404.13 C 498.92 404.82 498.91 406.19 498.91 406.88 C 496.68 406.35 493.66 405.90 492.34 408.32 C 491.63 413.79 492.90 419.38 491.74 424.81 C 491.51 426.21 489.97 426.58 488.97 427.28 C 488.39 419.72 488.69 412.13 488.90 404.56 Z" />
</g>
<g id="#595959ff">
<path fill="#595959" opacity="1.00" d=" M 347.15 403.12 C 348.48 403.26 349.04 404.82 348.61 405.97 C 347.00 407.31 345.82 404.02 347.15 403.12 Z" />
<path fill="#595959" opacity="1.00" d=" M 304.96 416.80 C 306.04 418.42 306.79 420.44 308.57 421.46 C 310.48 422.74 312.86 422.61 315.05 422.74 C 315.03 424.18 315.05 425.63 315.09 427.09 C 311.61 426.17 308.04 425.50 304.73 424.03 C 304.69 421.62 304.76 419.20 304.96 416.80 Z" />
</g>
<g id="#4c4c4cff">
<path fill="#4c4c4c" opacity="1.00" d=" M 361.38 417.18 C 361.11 412.94 361.53 408.67 363.50 404.85 C 366.02 408.63 365.56 414.76 361.38 417.18 Z" />
</g>
<g id="#515151ff">
<path fill="#515151" opacity="1.00" d=" M 313.70 410.17 C 314.50 412.05 314.45 414.07 314.17 416.06 C 313.44 416.00 311.98 415.89 311.25 415.83 C 310.75 413.47 311.97 411.63 313.70 410.17 Z" />
</g>
<g id="#d4d4d4ff">
<path fill="#d4d4d4" opacity="1.00" d=" M 392.42 409.93 C 393.61 415.28 392.90 420.82 392.94 426.26 C 391.60 425.31 392.25 423.43 392.04 422.07 C 392.04 418.02 391.89 413.95 392.42 409.93 Z" />
</g>
<g id="#303030ff">
<path fill="#303030" opacity="1.00" d=" M 445.60 415.39 C 446.96 415.28 448.34 415.19 449.72 415.14 C 449.84 416.41 449.99 417.67 450.17 418.94 L 450.27 419.76 C 448.61 419.83 446.95 419.89 445.30 419.96 C 445.26 418.43 445.37 416.90 445.60 415.39 Z" />
</g>
<g id="#e0e0e0ff">
<path fill="#e0e0e0" opacity="1.00" d=" M 542.37 418.37 C 544.47 417.69 546.79 417.64 548.95 418.14 C 552.55 420.33 553.32 425.44 550.71 428.73 C 548.99 431.61 544.86 430.92 542.34 429.62 C 539.57 426.71 538.74 420.96 542.37 418.37 Z" />
</g>
<g id="#555555ff">
<path fill="#555555" opacity="1.00" d=" M 402.45 425.17 C 401.39 422.60 404.69 421.77 406.34 420.98 C 406.59 423.03 407.19 425.01 407.71 427.02 C 405.94 426.78 402.79 427.74 402.45 425.17 Z" />
</g>
<g id="#b4b4b4ff">
<path fill="#b4b4b4" opacity="1.00" d=" M 222.87 423.90 C 224.54 427.10 226.76 430.26 230.09 431.89 C 232.52 433.19 235.37 432.85 238.02 432.94 C 256.01 432.86 274.00 432.94 291.99 432.92 C 297.41 433.13 301.60 429.17 304.15 424.78 L 303.98 425.89 C 303.29 431.67 297.84 436.60 291.96 436.42 C 273.32 436.51 254.67 436.47 236.03 436.44 C 229.14 436.88 222.77 430.80 222.87 423.90 Z" />
<path fill="#b4b4b4" opacity="1.00" d=" M 479.75 595.66 C 483.40 594.64 485.82 591.54 488.11 588.74 C 487.72 595.24 481.40 600.34 474.99 599.83 C 458.32 599.83 441.65 599.79 424.97 599.85 C 421.15 599.82 417.09 600.21 413.59 598.36 C 410.38 596.61 407.84 593.38 407.45 589.68 C 410.18 591.81 412.42 594.95 415.99 595.71 C 418.94 596.35 421.99 596.14 425.00 596.15 C 439.98 596.08 454.96 596.15 469.95 596.07 C 473.21 596.01 476.53 596.38 479.75 595.66 Z" />
</g>
<g id="#b1b1b1ff">
<path fill="#b1b1b1" opacity="1.00" d=" M 573.62 431.58 C 576.64 430.20 578.36 427.20 580.37 424.70 C 580.13 431.03 574.42 436.75 567.96 436.38 C 550.00 436.53 532.02 436.38 514.05 436.46 C 510.85 436.36 507.29 436.47 504.65 434.35 C 502.49 432.71 499.97 430.60 500.33 427.58 C 503.46 430.05 506.66 433.14 510.95 433.01 C 528.31 433.25 545.67 432.99 563.03 433.15 C 566.59 433.13 570.35 433.22 573.62 431.58 Z" />
<path fill="#b1b1b1" opacity="1.00" d=" M 315.00 505.91 C 317.15 510.55 321.49 514.85 326.95 514.60 C 345.31 514.64 363.67 514.60 382.03 514.64 C 384.54 514.58 387.19 514.67 389.48 513.46 C 392.35 511.97 394.23 509.24 396.27 506.84 C 395.66 512.90 390.21 518.39 383.95 518.04 C 364.97 518.08 345.98 518.04 327.00 518.07 C 320.56 518.22 315.03 512.21 315.00 505.91 Z" />
</g>
<g id="#393939ff">
<path fill="#393939" opacity="1.00" d=" M 530.73 485.16 C 536.75 485.22 542.76 485.15 548.78 485.21 C 548.80 486.51 548.82 487.82 548.85 489.13 C 542.77 489.09 536.69 489.18 530.60 489.08 C 530.67 487.77 530.72 486.46 530.73 485.16 Z" />
</g>
<g id="#dca86dff">
<path fill="#dca86d" opacity="1.00" d=" M 500.58 544.18 C 503.35 540.16 508.04 537.77 512.93 537.93 C 529.28 537.94 545.64 537.92 561.99 537.92 C 564.85 537.96 567.78 537.58 570.56 538.49 C 568.73 538.96 566.85 539.27 564.96 539.26 C 547.62 539.08 530.28 539.15 512.94 539.30 C 508.50 539.34 503.75 541.34 501.60 545.41 C 499.24 550.30 500.44 555.82 500.34 561.02 C 500.27 570.25 500.56 579.49 500.11 588.71 L 499.05 587.85 C 498.60 578.90 498.99 569.93 498.86 560.97 C 499.00 555.36 498.11 549.43 500.58 544.18 Z" />
</g>
<g id="#f5a44dff">
<path fill="#f5a44d" opacity="1.00" d=" M 570.56 538.49 L 571.07 538.36 C 576.55 540.00 580.54 545.31 580.46 551.06 C 580.52 563.44 580.55 575.83 580.42 588.21 L 580.25 588.89 C 578.70 590.71 577.07 592.46 575.58 594.34 C 573.10 595.18 570.57 596.02 567.94 596.09 C 549.31 595.81 530.68 595.96 512.05 596.07 C 509.19 595.92 506.39 595.32 503.59 594.80 C 502.06 592.99 500.93 590.91 500.11 588.71 C 500.56 579.49 500.27 570.25 500.34 561.02 C 500.44 555.82 499.24 550.30 501.60 545.41 C 503.75 541.34 508.50 539.34 512.94 539.30 C 530.28 539.15 547.62 539.08 564.96 539.26 C 566.85 539.27 568.73 538.96 570.56 538.49 M 520.26 556.28 C 520.05 558.73 519.87 561.23 520.49 563.65 C 533.34 563.31 546.21 563.87 559.05 563.34 C 560.16 561.27 559.35 558.61 559.58 556.32 C 546.47 556.19 533.36 556.28 520.26 556.28 M 520.14 572.05 C 520.03 574.43 519.33 577.37 520.86 579.38 C 533.71 579.43 546.58 579.63 559.44 579.28 C 559.46 577.04 559.51 574.81 559.59 572.59 C 555.43 571.86 551.20 571.65 547.01 571.99 C 538.06 571.92 529.08 571.53 520.14 572.05 Z" />
</g>
<g id="#604931ff">
<path fill="#604931" opacity="1.00" d=" M 497.18 549.93 C 497.44 547.72 497.78 544.37 500.58 544.18 C 498.11 549.43 499.00 555.36 498.86 560.97 C 498.99 569.93 498.60 578.90 499.05 587.85 C 499.35 594.36 505.36 600.27 511.99 599.87 C 530.66 599.82 549.33 599.81 568.00 599.88 C 574.13 599.87 579.41 594.90 580.25 588.89 L 580.42 588.21 C 580.77 586.87 581.03 585.49 581.05 584.12 C 581.28 572.37 580.77 560.59 581.37 548.86 C 582.79 551.35 582.36 554.28 582.41 557.03 C 582.25 567.37 582.55 577.71 582.17 588.05 C 582.09 590.75 581.24 593.37 580.03 595.77 C 577.90 597.77 575.70 600.06 572.69 600.59 C 568.18 601.45 563.56 601.04 559.00 601.04 C 543.33 601.00 527.67 601.14 512.00 600.97 C 508.84 601.02 505.76 600.18 502.95 598.77 C 500.53 596.25 497.43 593.69 497.31 589.91 C 496.41 576.60 497.05 563.25 497.18 549.93 Z" />
</g>
<g id="#fffbf2ff">
<path fill="#fffbf2" opacity="1.00" d=" M 520.26 556.28 C 533.36 556.28 546.47 556.19 559.58 556.32 C 559.35 558.61 560.16 561.27 559.05 563.34 C 546.21 563.87 533.34 563.31 520.49 563.65 C 519.87 561.23 520.05 558.73 520.26 556.28 Z" />
</g>
<g id="#323232ff">
<path fill="#323232" opacity="1.00" d=" M 445.82 558.84 C 446.76 558.84 448.66 558.84 449.61 558.84 C 449.64 561.50 449.59 564.18 449.45 566.86 C 452.10 567.05 454.75 567.10 457.41 566.99 C 457.43 567.86 457.47 569.59 457.50 570.46 C 454.86 570.46 452.23 570.52 449.60 570.56 C 449.59 573.33 449.60 576.09 449.64 578.87 C 448.36 578.85 447.08 578.86 445.81 578.91 C 445.85 576.11 445.81 573.32 445.76 570.53 C 443.10 570.54 440.45 570.50 437.80 570.41 C 437.84 569.58 437.92 567.92 437.95 567.09 C 440.59 567.02 443.24 566.96 445.88 566.94 C 445.83 564.24 445.81 561.53 445.82 558.84 Z" />
</g>
<g id="#fffef4ff">
<path fill="#fffef4" opacity="1.00" d=" M 520.14 572.05 C 529.08 571.53 538.06 571.92 547.01 571.99 C 551.20 571.65 555.43 571.86 559.59 572.59 C 559.51 574.81 559.46 577.04 559.44 579.28 C 546.58 579.63 533.71 579.43 520.86 579.38 C 519.33 577.37 520.03 574.43 520.14 572.05 Z" />
</g>
<g id="#b77f43ff">
<path fill="#b77f43" opacity="1.00" d=" M 499.05 587.85 L 500.11 588.71 C 500.93 590.91 502.06 592.99 503.59 594.80 C 505.86 598.20 510.37 598.09 514.00 598.28 C 530.66 598.28 547.31 598.16 563.97 598.33 C 568.03 598.22 573.30 598.43 575.58 594.34 C 577.07 592.46 578.70 590.71 580.25 588.89 C 579.41 594.90 574.13 599.87 568.00 599.88 C 549.33 599.81 530.66 599.82 511.99 599.87 C 505.36 600.27 499.35 594.36 499.05 587.85 Z" />
</g>
<g id="#d78731ff">
<path fill="#d78731" opacity="1.00" d=" M 567.94 596.09 C 570.57 596.02 573.10 595.18 575.58 594.34 C 573.30 598.43 568.03 598.22 563.97 598.33 C 547.31 598.16 530.66 598.28 514.00 598.28 C 510.37 598.09 505.86 598.20 503.59 594.80 C 506.39 595.32 509.19 595.92 512.05 596.07 C 530.68 595.96 549.31 595.81 567.94 596.09 Z" />
</g>
<g id="#4a4844ff">
<path fill="#4a4844" opacity="1.00" d=" M 572.69 600.59 C 575.70 600.06 577.90 597.77 580.03 595.77 C 580.36 599.37 576.01 600.37 575.54 603.71 C 572.97 604.46 570.34 604.16 567.79 603.52 C 564.51 602.68 561.31 604.17 558.06 604.29 C 542.36 604.22 526.66 604.30 510.97 604.21 C 510.57 603.77 509.76 602.91 509.36 602.47 C 506.53 603.14 503.71 601.65 502.95 598.77 C 505.76 600.18 508.84 601.02 512.00 600.97 C 527.67 601.14 543.33 601.00 559.00 601.04 C 563.56 601.04 568.18 601.45 572.69 600.59 Z" />
</g>
<g id="#424242ff">
<path fill="#424242" opacity="1.00" d=" M 196.05 603.54 C 198.49 607.32 199.51 611.99 203.01 615.04 C 207.51 620.27 214.28 622.95 220.94 623.99 C 337.29 624.02 453.64 623.98 569.99 624.01 C 576.46 623.90 583.14 624.53 589.37 622.39 C 592.60 621.26 596.08 620.03 598.22 617.20 C 599.83 615.14 601.70 613.31 603.41 611.34 C 604.77 608.80 605.47 605.92 607.21 603.57 C 607.15 610.15 608.25 617.15 605.21 623.28 C 601.55 632.24 592.60 638.73 582.96 639.44 C 462.97 639.47 342.96 639.43 222.96 639.46 C 218.49 639.52 214.14 638.28 209.93 636.92 C 204.78 633.13 199.80 628.52 197.70 622.31 C 195.15 616.37 196.17 609.80 196.05 603.54 Z" />
</g>
</svg>
